<?xml version="1.0" encoding="UTF-8"?>
<!DOCTYPE svg PUBLIC "-//W3C//DTD SVG 1.1//EN" "http://www.w3.org/Graphics/SVG/1.1/DTD/svg11.dtd">
<svg xmlns="http://www.w3.org/2000/svg" version="1.1" width="500px" height="500px" style="shape-rendering:geometricPrecision; text-rendering:geometricPrecision; image-rendering:optimizeQuality; fill-rule:evenodd; clip-rule:evenodd" xmlns:xlink="http://www.w3.org/1999/xlink">
<g><path style="opacity:1" fill="#f9f9f9" d="M -0.5,-0.5 C 166.167,-0.5 332.833,-0.5 499.5,-0.5C 499.5,166.167 499.5,332.833 499.5,499.5C 332.833,499.5 166.167,499.5 -0.5,499.5C -0.5,332.833 -0.5,166.167 -0.5,-0.5 Z"/></g>
<g><path style="opacity:1" fill="#c1e8fe" d="M 100.5,81.5 C 198.501,81.3333 296.501,81.5 394.5,82C 424.545,87.7115 442.712,105.545 449,135.5C 449.667,210.833 449.667,286.167 449,361.5C 443.148,392.686 424.648,411.186 393.5,417C 296.167,417.667 198.833,417.667 101.5,417C 72.5784,409.412 55.4117,390.912 50,361.5C 49.3333,286.5 49.3333,211.5 50,136.5C 55.8863,108.026 72.7197,89.6932 100.5,81.5 Z"/></g>
<g><path style="opacity:1" fill="#3b5090" d="M 255.5,146.5 C 257.337,146.639 257.67,147.306 256.5,148.5C 255.702,148.043 255.369,147.376 255.5,146.5 Z"/></g>
<g><path style="opacity:1" fill="#021967" d="M 257.5,150.5 C 256.691,152.292 256.191,154.292 256,156.5C 255.517,155.552 255.351,154.552 255.5,153.5C 255.238,152.022 255.571,150.689 256.5,149.5C 257.107,149.624 257.44,149.957 257.5,150.5 Z"/></g>
<g><path style="opacity:1" fill="#21327a" d="M 224.5,149.5 C 230.324,149.347 230.657,150.013 225.5,151.5C 226.655,152.95 228.155,153.95 230,154.5C 230.471,158.855 228.638,160.188 224.5,158.5C 225.833,157.833 227.167,157.167 228.5,156.5C 227.086,155.376 225.586,154.376 224,153.5C 223.421,152.072 223.588,150.738 224.5,149.5 Z"/></g>
<g><path style="opacity:1" fill="#21337a" d="M 240.5,149.5 C 241.802,150.807 243.135,150.807 244.5,149.5C 244.833,149.833 245.167,150.167 245.5,150.5C 244.675,151.386 243.675,151.719 242.5,151.5C 242.799,153.604 242.466,155.604 241.5,157.5C 240.52,154.914 240.187,152.247 240.5,149.5 Z"/></g>
<g><path style="opacity:1" fill="#1a2b74" d="M 233.5,151.5 C 236.676,149.727 238.343,150.727 238.5,154.5C 233.203,155.032 233.203,155.866 238.5,157C 232.986,158.327 231.319,156.493 233.5,151.5 Z"/></g>
<g><path style="opacity:1" fill="#88a9d0" d="M 233.5,151.5 C 234.675,151.281 235.675,151.614 236.5,152.5C 234.948,153.798 233.948,153.465 233.5,151.5 Z"/></g>
<g><path style="opacity:1" fill="#12236f" d="M 261.5,149.5 C 266.629,150.614 266.629,151.281 261.5,151.5C 261.5,153.167 261.5,154.833 261.5,156.5C 262.552,156.351 263.552,156.517 264.5,157C 259.917,157.934 258.417,156.1 260,151.5C 260.717,150.956 261.217,150.289 261.5,149.5 Z"/></g>
<g><path style="opacity:1" fill="#172872" d="M 246.5,149.5 C 248.614,150.36 249.78,152.027 250,154.5C 250.402,153.128 250.902,151.795 251.5,150.5C 252.167,149.167 252.833,149.167 253.5,150.5C 252.833,152.167 252.167,153.833 251.5,155.5C 250.675,156.386 249.675,156.719 248.5,156.5C 248.122,154.079 247.455,151.746 246.5,149.5 Z"/></g>
<g><path style="opacity:1" fill="#6785b7" d="M 257.5,150.5 C 257.5,152.833 257.5,155.167 257.5,157.5C 256.5,157.5 255.5,157.5 254.5,157.5C 254.232,155.901 254.566,154.568 255.5,153.5C 255.351,154.552 255.517,155.552 256,156.5C 256.191,154.292 256.691,152.292 257.5,150.5 Z"/></g>
<g><path style="opacity:1" fill="#162872" d="M 267.5,151.5 C 271.241,150.599 273.241,151.932 273.5,155.5C 267.739,155.709 267.406,156.542 272.5,158C 266.741,159.139 265.074,156.972 267.5,151.5 Z"/></g>
<g><path style="opacity:1" fill="#99bcdf" d="M 269.5,152.5 C 271.337,152.639 271.67,153.306 270.5,154.5C 269.702,154.043 269.369,153.376 269.5,152.5 Z"/></g>
<g><path style="opacity:1" fill="#1e3078" d="M 287.5,153.5 C 289.696,153.565 291.696,154.232 293.5,155.5C 292.349,156.731 291.183,156.731 290,155.5C 289.5,156 289,156.5 288.5,157C 292.558,160.048 292.225,160.881 287.5,159.5C 287.5,160.5 287.5,161.5 287.5,162.5C 288.675,162.281 289.675,162.614 290.5,163.5C 288.939,164.347 287.439,164.014 286,162.5C 285.861,159.425 286.361,156.425 287.5,153.5 Z"/></g>
<g><path style="opacity:1" fill="#1d2d76" d="M 199.5,159.5 C 202.838,159.109 203.838,160.276 202.5,163C 203.093,164.882 204.427,165.882 206.5,166C 205.135,167.682 203.635,167.849 202,166.5C 200.589,164.35 199.755,162.016 199.5,159.5 Z"/></g>
<g><path style="opacity:1" fill="#1b2b75" d="M 206.5,157.5 C 213.267,157.346 213.934,159.013 208.5,162.5C 210.108,163.242 211.775,163.409 213.5,163C 207.469,165.799 205.135,163.966 206.5,157.5 Z"/></g>
<g><path style="opacity:1" fill="#a7cbea" d="M 207.5,158.5 C 209.337,158.639 209.67,159.306 208.5,160.5C 207.702,160.043 207.369,159.376 207.5,158.5 Z"/></g>
<g><path style="opacity:1" fill="#202f78" d="M 294.5,158.5 C 297.778,159.941 300.944,161.608 304,163.5C 304.044,165.76 303.211,167.76 301.5,169.5C 301.167,169.167 300.833,168.833 300.5,168.5C 301.95,167.15 302.617,165.484 302.5,163.5C 300.027,163.736 298.36,165.069 297.5,167.5C 297.433,165.576 297.1,163.576 296.5,161.5C 295.155,162.347 294.155,163.513 293.5,165C 292.833,165.667 292.167,165.667 291.5,165C 292.793,162.948 293.793,160.781 294.5,158.5 Z"/></g>
<g><path style="opacity:1" fill="#0b1d6b" d="M 302.5,175.5 C 342.106,204.821 354.606,243.154 340,290.5C 337.334,297.165 334.167,303.499 330.5,309.5C 327.946,310.388 325.279,310.721 322.5,310.5C 341.822,282.928 345.655,253.261 334,221.5C 310.478,176.159 273.644,158.993 223.5,170C 180.151,187.388 159.317,219.555 161,266.5C 163.436,282.33 169.27,296.663 178.5,309.5C 175.939,310.767 173.272,310.767 170.5,309.5C 154.179,281.986 151.013,252.986 161,222.5C 184.239,173.462 222.739,153.962 276.5,164C 285.572,167.038 294.238,170.872 302.5,175.5 Z"/></g>
<g><path style="opacity:1" fill="#1c2d76" d="M 195.5,162.5 C 197.605,163.987 199.272,165.987 200.5,168.5C 195.573,172.946 192.74,171.946 192,165.5C 193.257,167.746 195.09,169.079 197.5,169.5C 197.122,167.079 196.455,164.746 195.5,162.5 Z"/></g>
<g><path style="opacity:1" fill="#bfe5fc" d="M 322.5,310.5 C 314.981,310.825 307.648,310.492 300.5,309.5C 304.98,309.35 306.98,307.017 306.5,302.5C 294.167,302.5 281.833,302.5 269.5,302.5C 269.64,304.124 268.973,305.29 267.5,306C 255.5,306.667 243.5,306.667 231.5,306C 230.027,305.29 229.36,304.124 229.5,302.5C 217.167,302.5 204.833,302.5 192.5,302.5C 192.02,307.017 194.02,309.35 198.5,309.5C 195.713,310.477 192.713,310.81 189.5,310.5C 188.5,307.833 187.5,307.833 186.5,310.5C 183.721,310.721 181.054,310.388 178.5,309.5C 169.27,296.663 163.436,282.33 161,266.5C 159.317,219.555 180.151,187.388 223.5,170C 273.644,158.993 310.478,176.159 334,221.5C 345.655,253.261 341.822,282.928 322.5,310.5 Z"/></g>
<g><path style="opacity:1" fill="#52b2fe" d="M 129.5,195.5 C 125.113,191.237 122.113,186.07 120.5,180C 121.397,174.976 122.897,170.143 125,165.5C 127.259,170.357 129.259,175.357 131,180.5C 131.354,185.572 130.854,190.572 129.5,195.5 Z"/></g>
<g><path style="opacity:1" fill="#192973" d="M 302.5,175.5 C 303.252,171.737 304.919,168.404 307.5,165.5C 313.075,167.367 313.741,170.201 309.5,174C 307.633,174.711 306.133,174.211 305,172.5C 304.623,173.942 303.79,174.942 302.5,175.5 Z"/></g>
<g><path style="opacity:1" fill="#acd0ed" d="M 307.5,168.5 C 308.675,168.281 309.675,168.614 310.5,169.5C 309.923,171.55 308.59,172.55 306.5,172.5C 306.433,171.041 306.766,169.708 307.5,168.5 Z"/></g>
<g><path style="opacity:1" fill="#1f3078" d="M 313.5,171.5 C 319.452,171.609 320.786,174.109 317.5,179C 311.398,179.223 310.064,176.723 313.5,171.5 Z"/></g>
<g><path style="opacity:1" fill="#071e6b" d="M 239.5,173.5 C 240.675,173.281 241.675,173.614 242.5,174.5C 240.948,175.798 239.948,175.465 239.5,173.5 Z"/></g>
<g><path style="opacity:1" fill="#132671" d="M 247.5,172.5 C 250.674,172.952 251.007,173.952 248.5,175.5C 247.614,174.675 247.281,173.675 247.5,172.5 Z"/></g>
<g><path style="opacity:1" fill="#162671" d="M 255.5,172.5 C 257.465,172.948 257.798,173.948 256.5,175.5C 255.614,174.675 255.281,173.675 255.5,172.5 Z"/></g>
<g><path style="opacity:1" fill="#aed3ef" d="M 314.5,173.5 C 315.5,173.5 316.5,173.5 317.5,173.5C 317.833,176.5 316.5,177.833 313.5,177.5C 313.433,176.041 313.766,174.708 314.5,173.5 Z"/></g>
<g><path style="opacity:1" fill="#bbddf8" d="M 125.5,170.5 C 129.351,176.624 130.351,183.291 128.5,190.5C 126.94,183.916 125.94,177.25 125.5,170.5 Z"/></g>
<g><path style="opacity:1" fill="#172873" d="M 186.5,168.5 C 190.8,168.815 192.467,171.149 191.5,175.5C 187.901,175.262 187.567,176.262 190.5,178.5C 189.726,179.711 188.893,179.711 188,178.5C 186.5,176.167 185,173.833 183.5,171.5C 184.77,170.712 185.77,169.712 186.5,168.5 Z"/></g>
<g><path style="opacity:1" fill="#abd0ed" d="M 186.5,170.5 C 189.5,170.167 190.833,171.5 190.5,174.5C 187.5,174.833 186.167,173.5 186.5,170.5 Z"/></g>
<g><path style="opacity:1" fill="#142671" d="M 232.5,174.5 C 234.465,174.948 234.798,175.948 233.5,177.5C 232.614,176.675 232.281,175.675 232.5,174.5 Z"/></g>
<g><path style="opacity:1" fill="#202f78" d="M 263.5,173.5 C 265.048,173.821 265.715,174.821 265.5,176.5C 262.752,176.598 262.086,175.598 263.5,173.5 Z"/></g>
<g><path style="opacity:1" fill="#23337b" d="M 270.5,175.5 C 273.957,175.667 274.29,176.667 271.5,178.5C 270.614,177.675 270.281,176.675 270.5,175.5 Z"/></g>
<g><path style="opacity:1" fill="#132671" d="M 224.5,176.5 C 227.548,176.494 228.048,177.494 226,179.5C 224.961,178.756 224.461,177.756 224.5,176.5 Z"/></g>
<g><path style="opacity:1" fill="#172973" d="M 179.5,173.5 C 182.069,174.396 184.069,176.062 185.5,178.5C 185.167,178.833 184.833,179.167 184.5,179.5C 183.155,178.653 182.155,177.487 181.5,176C 180.035,175.399 179.035,175.899 178.5,177.5C 179.5,178.833 180.5,180.167 181.5,181.5C 181.167,181.833 180.833,182.167 180.5,182.5C 179.5,180.833 178.167,179.5 176.5,178.5C 175.06,181.228 175.726,183.395 178.5,185C 175.899,184.599 173.899,183.099 172.5,180.5C 174.673,177.932 177.006,175.599 179.5,173.5 Z"/></g>
<g><path style="opacity:1" fill="#28377e" d="M 277.5,177.5 C 278.5,177.5 279.5,177.5 280.5,177.5C 280.5,178.5 280.5,179.5 280.5,180.5C 279.5,180.5 278.5,180.5 277.5,180.5C 277.5,179.5 277.5,178.5 277.5,177.5 Z"/></g>
<g><path style="opacity:1" fill="#0f226e" d="M 217.5,179.5 C 218.675,179.281 219.675,179.614 220.5,180.5C 218.948,181.798 217.948,181.465 217.5,179.5 Z"/></g>
<g><path style="opacity:1" fill="#0f226e" d="M 285.5,180.5 C 287.465,180.948 287.798,181.948 286.5,183.5C 284.481,182.867 284.147,181.867 285.5,180.5 Z"/></g>
<g><path style="opacity:1" fill="#21327a" d="M 210.5,182.5 C 213.957,182.667 214.29,183.667 211.5,185.5C 210.614,184.675 210.281,183.675 210.5,182.5 Z"/></g>
<g><path style="opacity:1" fill="#021867" d="M 249.5,182.5 C 252.195,185.223 253.862,188.557 254.5,192.5C 253.948,194.333 253.115,196 252,197.5C 250.751,189.713 249.085,189.713 247,197.5C 244.624,191.963 245.458,186.963 249.5,182.5 Z"/></g>
<g><path style="opacity:1" fill="#142671" d="M 291.5,184.5 C 294.548,184.494 295.048,185.494 293,187.5C 291.961,186.756 291.461,185.756 291.5,184.5 Z"/></g>
<g><path style="opacity:1" fill="#1f3179" d="M 321.5,175.5 C 322.376,175.369 323.043,175.702 323.5,176.5C 320.833,180.5 321.5,181.167 325.5,178.5C 326.578,180.475 326.245,182.308 324.5,184C 326.345,183.217 328.345,182.884 330.5,183C 328.246,184.377 326.08,185.877 324,187.5C 322.297,185.653 322.464,183.819 324.5,182C 322.953,181.667 321.62,182.167 320.5,183.5C 319.692,183.192 319.025,182.692 318.5,182C 319.914,180.007 320.914,177.84 321.5,175.5 Z"/></g>
<g><path style="opacity:1" fill="#23337b" d="M 203.5,186.5 C 204.5,186.5 205.5,186.5 206.5,186.5C 205.754,190.31 204.754,190.31 203.5,186.5 Z"/></g>
<g><path style="opacity:1" fill="#50b2fe" d="M 365.5,312.5 C 364.833,312.5 364.167,312.5 363.5,312.5C 363.649,311.448 363.483,310.448 363,309.5C 358.574,303.413 354.574,297.08 351,290.5C 350.171,285.136 350.337,279.802 351.5,274.5C 357.252,279.752 362.085,285.752 366,292.5C 366.164,297.179 366.164,301.845 366,306.5C 368.864,301.609 371.03,296.442 372.5,291C 372.142,288.968 371.308,287.134 370,285.5C 365.66,281.493 361.66,277.16 358,272.5C 356.565,267.563 355.898,262.563 356,257.5C 361.977,261.479 367.31,266.146 372,271.5C 373.106,276.769 373.773,282.103 374,287.5C 376.017,280.949 377.517,274.283 378.5,267.5C 372.903,263.08 367.403,258.413 362,253.5C 360.019,249.042 358.186,244.542 356.5,240C 363.539,241.775 369.706,245.275 375,250.5C 376.937,254.646 378.271,258.979 379,263.5C 380.087,256.54 380.587,249.54 380.5,242.5C 373.891,240.446 367.725,237.446 362,233.5C 359.707,229.748 357.54,225.914 355.5,222C 358.474,221.909 361.141,222.743 363.5,224.5C 371.661,225.827 376.828,230.493 379,238.5C 379.162,232.131 378.662,225.798 377.5,219.5C 365.919,219.327 357.252,214.327 351.5,204.5C 357.626,204.027 363.626,205.194 369.5,208C 372.057,210.892 374.224,214.059 376,217.5C 375.308,210.915 373.475,204.582 370.5,198.5C 359.541,199.021 350.541,195.188 343.5,187C 347.5,186.333 351.5,186.333 355.5,187C 352.833,187.333 350.167,187.667 347.5,188C 353.609,190.074 359.609,192.074 365.5,194C 363.377,191.201 360.71,189.201 357.5,188C 358.833,187.333 360.167,187.333 361.5,188C 369.242,197.027 370.409,196.194 365,185.5C 361,182.167 357,178.833 353,175.5C 350.838,170.853 349.671,166.187 349.5,161.5C 354.261,163.294 358.427,165.96 362,169.5C 363.638,178.063 366.638,186.063 371,193.5C 369.189,183.764 371.022,174.764 376.5,166.5C 380.086,171.992 381.252,177.992 380,184.5C 377.619,188.766 375.119,192.932 372.5,197C 375.06,202.679 377.227,208.512 379,214.5C 379.231,210.416 379.898,206.416 381,202.5C 384,197.167 387,191.833 390,186.5C 391.976,192.373 392.643,198.373 392,204.5C 389.298,209.893 385.631,214.559 381,218.5C 381.449,224.866 382.449,231.199 384,237.5C 384.562,232.917 385.895,228.583 388,224.5C 392,219.833 396,215.167 400,210.5C 400.987,217.685 400.321,224.685 398,231.5C 393.959,235.765 389.459,239.432 384.5,242.5C 383.336,248.807 383.169,255.141 384,261.5C 388.083,250.748 395.083,242.415 405,236.5C 405.58,243.518 404.247,250.185 401,256.5C 395.614,261.276 389.447,264.61 382.5,266.5C 381.329,272.497 380.496,278.497 380,284.5C 382.467,280.4 385.301,276.566 388.5,273C 394.751,269.292 400.917,265.459 407,261.5C 406.184,269.937 403.017,277.437 397.5,284C 390.832,287.278 383.832,289.445 376.5,290.5C 374.281,296.911 372.114,303.244 370,309.5C 378.687,297.907 390.187,291.074 404.5,289C 401.726,294.713 398.56,300.213 395,305.5C 390.979,309.399 386.145,311.566 380.5,312C 375.511,312.499 370.511,312.666 365.5,312.5 Z"/></g>
<g><path style="opacity:1" fill="#b6dbf8" d="M 375.5,170.5 C 376.124,170.917 376.457,171.584 376.5,172.5C 376.052,178.715 374.885,184.715 373,190.5C 372.5,188 372,185.5 371.5,183C 372.7,178.773 374.033,174.606 375.5,170.5 Z"/></g>
<g><path style="opacity:1" fill="#baddf8" d="M 352.5,166.5 C 355.226,166.083 357.726,167.083 360,169.5C 362.022,172.967 363.022,176.634 363,180.5C 359.723,175.586 356.223,170.92 352.5,166.5 Z"/></g>
<g><path style="opacity:1" fill="#152872" d="M 298.5,188.5 C 300.465,188.948 300.798,189.948 299.5,191.5C 297.481,190.867 297.147,189.867 298.5,188.5 Z"/></g>
<g><path style="opacity:1" fill="#192b75" d="M 168.5,183.5 C 174.488,183.664 175.821,186.164 172.5,191C 166.95,190.635 165.617,188.135 168.5,183.5 Z"/></g>
<g><path style="opacity:1" fill="#afd3f0" d="M 168.5,185.5 C 171.5,185.167 172.833,186.5 172.5,189.5C 169.5,189.833 168.167,188.5 168.5,185.5 Z"/></g>
<g><path style="opacity:1" fill="#304085" d="M 329.5,185.5 C 334.378,186.031 335.545,188.364 333,192.5C 331.981,191.313 330.814,190.313 329.5,189.5C 329.165,191.003 329.165,192.336 329.5,193.5C 326.937,190.92 326.937,188.253 329.5,185.5 Z"/></g>
<g><path style="opacity:1" fill="#4eb1fe" d="M 138.5,312.5 C 136.833,312.5 135.167,312.5 133.5,312.5C 125.529,313.218 117.863,312.051 110.5,309C 104.336,303.102 100.336,296.268 98.5,288.5C 105.5,291.333 112.5,294.167 119.5,297C 124.219,300.597 128.386,304.763 132,309.5C 129.735,303.61 127.402,297.61 125,291.5C 118.029,289.433 111.195,286.933 104.5,284C 99.0796,277.681 96.0796,270.515 95.5,262.5C 101.833,266.333 108.167,270.167 114.5,274C 117,277.833 119.5,281.667 122,285.5C 121.342,279.184 120.509,272.851 119.5,266.5C 112.044,264.522 105.544,260.856 100,255.5C 97.7963,248.93 96.4629,242.263 96,235.5C 101.333,240.167 106.667,244.833 112,249.5C 114.257,253.683 116.257,258.016 118,262.5C 118.831,255.808 118.664,249.142 117.5,242.5C 112.022,239.335 107.188,235.335 103,230.5C 101.456,223.916 101.123,217.249 102,210.5C 105.667,214.833 109.333,219.167 113,223.5C 115.673,228.519 117.34,233.852 118,239.5C 118.889,232.944 120.055,226.444 121.5,220C 117.3,215.466 113.467,210.632 110,205.5C 109.07,198.996 109.736,192.662 112,186.5C 114.667,191.167 117.333,195.833 120,200.5C 121.174,205.75 121.841,211.084 122,216.5C 124.208,209.374 126.708,202.374 129.5,195.5C 134.822,187.254 138.489,178.254 140.5,168.5C 143.959,165.539 147.792,163.206 152,161.5C 152.116,166.039 151.116,170.372 149,174.5C 145.61,178.393 141.777,181.727 137.5,184.5C 135.381,188.05 133.881,191.717 133,195.5C 135.514,191.35 139.014,188.85 143.5,188C 140.301,189.667 138.301,191.834 137.5,194.5C 142.724,192.037 148.058,189.87 153.5,188C 150.833,187.667 148.167,187.333 145.5,187C 149.541,186.173 153.541,186.34 157.5,187.5C 154.709,189.789 152.042,192.289 149.5,195C 143.465,195.869 137.465,196.869 131.5,198C 128.434,203.859 126.6,210.026 126,216.5C 131.044,206.981 138.877,203.314 149.5,205.5C 147.525,208.609 145.192,211.443 142.5,214C 136.688,216.453 130.688,218.286 124.5,219.5C 122.876,225.407 122.376,231.407 123,237.5C 127.565,227.462 135.399,222.295 146.5,222C 143.971,226.218 141.304,230.385 138.5,234.5C 133.194,237.987 127.527,240.654 121.5,242.5C 121.363,249.214 121.863,255.88 123,262.5C 123.576,254.838 127.076,249.004 133.5,245C 137.079,243.294 140.579,241.461 144,239.5C 143.507,244.323 142.174,248.99 140,253.5C 135.262,258.074 130.095,262.074 124.5,265.5C 123.947,271.929 124.78,278.262 127,284.5C 127.45,279.241 128.784,274.241 131,269.5C 135.635,265.019 140.635,261.019 146,257.5C 145.95,263.748 144.616,269.748 142,275.5C 137.318,280.015 132.818,284.681 128.5,289.5C 130.707,295.622 133.207,301.622 136,307.5C 136.175,304.182 136.008,300.849 135.5,297.5C 137.565,288.068 142.565,280.401 150.5,274.5C 152.845,283.587 151.345,291.92 146,299.5C 143.045,303.244 140.211,307.078 137.5,311C 138.056,311.383 138.389,311.883 138.5,312.5 Z"/></g>
<g><path style="opacity:1" fill="#b9dcf8" d="M 146.5,165.5 C 147.552,165.351 148.552,165.517 149.5,166C 145.388,170.391 141.888,175.224 139,180.5C 138.316,173.869 140.816,168.869 146.5,165.5 Z"/></g>
<g><path style="opacity:1" fill="#1b2c75" d="M 161.5,187.5 C 162.376,187.369 163.043,187.702 163.5,188.5C 160.413,192.685 161.413,194.851 166.5,195C 169.893,191.931 170.227,192.431 167.5,196.5C 159.926,197.256 157.926,194.256 161.5,187.5 Z"/></g>
<g><path style="opacity:1" fill="#132671" d="M 198.5,190.5 C 200.625,191.368 200.791,192.368 199,193.5C 197.317,192.824 197.15,191.824 198.5,190.5 Z"/></g>
<g><path style="opacity:1" fill="#152771" d="M 336.5,191.5 C 338.047,192.515 338.88,193.849 339,195.5C 338.439,194.978 337.772,194.645 337,194.5C 335.418,196.029 333.585,196.529 331.5,196C 333.063,194.264 334.73,192.764 336.5,191.5 Z"/></g>
<g><path style="opacity:1" fill="#24337b" d="M 303.5,193.5 C 304.5,193.5 305.5,193.5 306.5,193.5C 305.754,197.31 304.754,197.31 303.5,193.5 Z"/></g>
<g><path style="opacity:1" fill="#b8dcf8" d="M 113.5,193.5 C 119.203,199.291 121.37,206.291 120,214.5C 116.726,207.843 114.559,200.843 113.5,193.5 Z"/></g>
<g><path style="opacity:1" fill="#bbddf8" d="M 387.5,193.5 C 388.043,193.56 388.376,193.893 388.5,194.5C 386.837,201.323 384.67,207.989 382,214.5C 381.333,210.833 381.333,207.167 382,203.5C 384.062,200.277 385.896,196.943 387.5,193.5 Z"/></g>
<g><path style="opacity:1" fill="#172772" d="M 191.5,196.5 C 192.675,196.281 193.675,196.614 194.5,197.5C 192.948,198.798 191.948,198.465 191.5,196.5 Z"/></g>
<g><path style="opacity:1" fill="#1b2d76" d="M 309.5,198.5 C 313.31,199.754 313.31,200.754 309.5,201.5C 309.5,200.5 309.5,199.5 309.5,198.5 Z"/></g>
<g><path style="opacity:1" fill="#021867" d="M 245.5,201.5 C 252.047,201.442 258.381,202.442 264.5,204.5C 263.624,205.251 262.624,205.751 261.5,206C 253.833,206.667 246.167,206.667 238.5,206C 236.956,205.71 235.623,205.044 234.5,204C 238.28,203.082 241.946,202.249 245.5,201.5 Z"/></g>
<g><path style="opacity:1" fill="#1e2e77" d="M 187.5,201.5 C 189.048,201.821 189.715,202.821 189.5,204.5C 186.752,204.598 186.086,203.598 187.5,201.5 Z"/></g>
<g><path style="opacity:1" fill="#1f3078" d="M 314.5,204.5 C 318.31,205.754 318.31,206.754 314.5,207.5C 314.5,206.5 314.5,205.5 314.5,204.5 Z"/></g>
<g><path style="opacity:1" fill="#b8dcf8" d="M 142.5,205.5 C 143.873,205.343 145.207,205.51 146.5,206C 140.086,208.62 134.253,212.12 129,216.5C 129.541,213.608 131.041,211.108 133.5,209C 136.571,207.704 139.571,206.538 142.5,205.5 Z"/></g>
<g><path style="opacity:1" fill="#011766" d="M 234.5,206.5 C 244.334,209.15 254.167,209.15 264,206.5C 264.733,210.972 264.233,215.305 262.5,219.5C 261.522,219.023 260.689,218.357 260,217.5C 259.311,218.357 258.478,219.023 257.5,219.5C 256.052,217.333 254.885,215 254,212.5C 253.13,213.108 252.63,213.941 252.5,215C 253.572,219.124 253.738,223.29 253,227.5C 252.333,228.167 251.667,228.833 251,229.5C 249.254,226.118 247.754,222.618 246.5,219C 243.83,218.457 241.33,218.957 239,220.5C 236.974,219.48 235.641,217.813 235,215.5C 234.502,212.518 234.335,209.518 234.5,206.5 Z"/></g>
<g><path style="opacity:1" fill="#b9ddf8" d="M 355.5,206.5 C 359.859,205.936 364.192,206.769 368.5,209C 370.388,210.95 371.554,213.117 372,215.5C 366.846,211.841 361.346,208.841 355.5,206.5 Z"/></g>
<g><path style="opacity:1" fill="#25357c" d="M 182.5,207.5 C 184.048,207.821 184.715,208.821 184.5,210.5C 181.752,210.598 181.086,209.598 182.5,207.5 Z"/></g>
<g><path style="opacity:1" fill="#2c3980" d="M 319.5,210.5 C 321.048,210.821 321.715,211.821 321.5,213.5C 318.752,213.598 318.086,212.598 319.5,210.5 Z"/></g>
<g><path style="opacity:1" fill="#25357c" d="M 177.5,214.5 C 178.5,214.5 179.5,214.5 180.5,214.5C 179.754,218.31 178.754,218.31 177.5,214.5 Z"/></g>
<g><path style="opacity:1" fill="#23327a" d="M 322.5,217.5 C 323.5,217.5 324.5,217.5 325.5,217.5C 325.5,218.5 325.5,219.5 325.5,220.5C 324.5,220.5 323.5,220.5 322.5,220.5C 322.5,219.5 322.5,218.5 322.5,217.5 Z"/></g>
<g><path style="opacity:1" fill="#b8dcf8" d="M 104.5,216.5 C 111.735,221.638 115.235,228.638 115,237.5C 110.435,231.036 106.935,224.036 104.5,216.5 Z"/></g>
<g><path style="opacity:1" fill="#b9ddf8" d="M 396.5,216.5 C 394.5,224.182 391,231.516 386,238.5C 386.479,234.892 387.146,231.225 388,227.5C 390.842,223.803 393.675,220.137 396.5,216.5 Z"/></g>
<g><path style="opacity:1" fill="#26367d" d="M 174.5,221.5 C 177.957,221.667 178.29,222.667 175.5,224.5C 174.614,223.675 174.281,222.675 174.5,221.5 Z"/></g>
<g><path style="opacity:1" fill="#1a2973" d="M 326.5,224.5 C 328.465,224.948 328.798,225.948 327.5,227.5C 325.481,226.867 325.147,225.867 326.5,224.5 Z"/></g>
<g><path style="opacity:1" fill="#b6dbf8" d="M 138.5,224.5 C 139.552,224.351 140.552,224.517 141.5,225C 135.407,229.089 129.907,233.922 125,239.5C 126.48,231.85 130.98,226.85 138.5,224.5 Z"/></g>
<g><path style="opacity:1" fill="#baddf8" d="M 363.5,224.5 C 367.192,226.438 370.692,228.771 374,231.5C 375.309,233.747 375.975,236.08 376,238.5C 371.425,233.254 366.258,228.754 360.5,225C 361.448,224.517 362.448,224.351 363.5,224.5 Z"/></g>
<g><path style="opacity:1" fill="#1d2f78" d="M 171.5,228.5 C 174.957,228.667 175.29,229.667 172.5,231.5C 171.614,230.675 171.281,229.675 171.5,228.5 Z"/></g>
<g><path style="opacity:1" fill="#26285f" d="M 193.5,231.5 C 230.835,231.333 268.168,231.5 305.5,232C 306.66,253.427 306.826,274.927 306,296.5C 305.25,297.126 304.416,297.626 303.5,298C 285.5,298.167 267.5,298.333 249.5,298.5C 230.746,298.655 212.079,298.155 193.5,297C 192.172,275.167 192.172,253.333 193.5,231.5 Z"/></g>
<g><path style="opacity:1" fill="#23337b" d="M 328.5,231.5 C 332.31,232.754 332.31,233.754 328.5,234.5C 328.5,233.5 328.5,232.5 328.5,231.5 Z"/></g>
<g><path style="opacity:1" fill="#22327a" d="M 169.5,235.5 C 173.31,236.754 173.31,237.754 169.5,238.5C 169.5,237.5 169.5,236.5 169.5,235.5 Z"/></g>
<g><path style="opacity:1" fill="#c0e7fd" d="M 197.5,236.5 C 232.167,236.5 266.833,236.5 301.5,236.5C 301.5,255.167 301.5,273.833 301.5,292.5C 266.833,292.5 232.167,292.5 197.5,292.5C 197.5,273.833 197.5,255.167 197.5,236.5 Z"/></g>
<g><path style="opacity:1" fill="#26285f" d="M 262.5,278.5 C 262.5,278.833 262.5,279.167 262.5,279.5C 260.547,273.926 259.88,267.926 260.5,261.5C 259.167,261.5 257.833,261.5 256.5,261.5C 256.5,264.833 256.5,268.167 256.5,271.5C 256.167,271.5 255.833,271.5 255.5,271.5C 255.5,268.167 255.5,264.833 255.5,261.5C 253.833,261.5 252.167,261.5 250.5,261.5C 250.5,270.167 250.5,278.833 250.5,287.5C 252.95,287.702 255.283,287.369 257.5,286.5C 257.5,287.5 257.5,288.5 257.5,289.5C 254.946,288.612 252.279,288.279 249.5,288.5C 249.5,279.5 249.5,270.5 249.5,261.5C 247.833,261.5 246.167,261.5 244.5,261.5C 244.5,269.167 244.5,276.833 244.5,284.5C 241.833,284.5 239.167,284.5 236.5,284.5C 236.5,284.167 236.5,283.833 236.5,283.5C 238.833,283.5 241.167,283.5 243.5,283.5C 243.5,276.167 243.5,268.833 243.5,261.5C 240.833,261.5 238.167,261.5 235.5,261.5C 235.5,267.833 235.5,274.167 235.5,280.5C 234.167,280.5 232.833,280.5 231.5,280.5C 231.5,279.833 231.5,279.167 231.5,278.5C 232.15,278.804 232.817,279.137 233.5,279.5C 234.496,273.537 234.829,267.537 234.5,261.5C 231.022,261.816 227.688,261.316 224.5,260C 222.012,256.552 222.678,253.552 226.5,251C 227.833,250.667 229.167,250.333 230.5,250C 234.312,246.91 237.979,243.577 241.5,240C 247.237,237.967 251.904,239.467 255.5,244.5C 266.667,242.832 271.167,247.499 269,258.5C 267.195,261.039 264.695,262.039 261.5,261.5C 261.178,267.358 261.511,273.025 262.5,278.5 Z"/></g>
<g><path style="opacity:1" fill="#0a1f6c" d="M 330.5,239.5 C 332.465,239.948 332.798,240.948 331.5,242.5C 330.614,241.675 330.281,240.675 330.5,239.5 Z"/></g>
<g><path style="opacity:1" fill="#b8dcf8" d="M 99.5,242.5 C 99.8966,241.475 100.563,241.308 101.5,242C 104.369,245.204 107.535,248.037 111,250.5C 112.967,254.401 114.3,258.401 115,262.5C 109.572,255.945 104.405,249.279 99.5,242.5 Z"/></g>
<g><path style="opacity:1" fill="#25337b" d="M 167.5,243.5 C 168.5,243.5 169.5,243.5 170.5,243.5C 169.754,247.31 168.754,247.31 167.5,243.5 Z"/></g>
<g><path style="opacity:1" fill="#baddf8" d="M 400.5,241.5 C 401.239,241.369 401.906,241.536 402.5,242C 398.094,249.076 392.928,255.576 387,261.5C 387.427,257.619 388.76,253.953 391,250.5C 394.528,247.831 397.695,244.831 400.5,241.5 Z"/></g>
<g><path style="opacity:1" fill="#b9ddf8" d="M 361.5,244.5 C 370.941,245.799 375.774,251.466 376,261.5C 371.677,255.348 366.843,249.681 361.5,244.5 Z"/></g>
<g><path style="opacity:1" fill="#b9ddf8" d="M 138.5,243.5 C 139.239,243.369 139.906,243.536 140.5,244C 134.832,249.188 129.998,255.021 126,261.5C 125.808,258.053 126.475,254.72 128,251.5C 131.299,248.449 134.799,245.782 138.5,243.5 Z"/></g>
<g><path style="opacity:1" fill="#001666" d="M 331.5,247.5 C 333.337,247.639 333.67,248.306 332.5,249.5C 331.702,249.043 331.369,248.376 331.5,247.5 Z"/></g>
<g><path style="opacity:1" fill="#001666" d="M 167.5,251.5 C 169.337,251.639 169.67,252.306 168.5,253.5C 167.702,253.043 167.369,252.376 167.5,251.5 Z"/></g>
<g><path style="opacity:1" fill="#162872" d="M 331.5,254.5 C 335.31,255.754 335.31,256.754 331.5,257.5C 331.5,256.5 331.5,255.5 331.5,254.5 Z"/></g>
<g><path style="opacity:1" fill="#0a1f6b" d="M 167.5,258.5 C 169.465,258.948 169.798,259.948 168.5,261.5C 167.614,260.675 167.281,259.675 167.5,258.5 Z"/></g>
<g><path style="opacity:1" fill="#b6dbf8" d="M 141.5,261.5 C 142.043,261.56 142.376,261.893 142.5,262.5C 137.574,269.346 133.408,276.679 130,284.5C 129.482,280.449 129.816,276.449 131,272.5C 134.03,268.305 137.53,264.639 141.5,261.5 Z"/></g>
<g><path style="opacity:1" fill="#051d6a" d="M 331.5,262.5 C 333.465,262.948 333.798,263.948 332.5,265.5C 331.614,264.675 331.281,263.675 331.5,262.5 Z"/></g>
<g><path style="opacity:1" fill="#bcdef8" d="M 359.5,263.5 C 359.897,262.475 360.563,262.308 361.5,263C 364.473,265.728 367.306,268.561 370,271.5C 371.434,275.406 371.767,279.406 371,283.5C 368.861,277.888 366.194,272.554 363,267.5C 362.051,265.907 360.885,264.574 359.5,263.5 Z"/></g>
<g><path style="opacity:1" fill="#1f3078" d="M 167.5,266.5 C 168.5,266.5 169.5,266.5 170.5,266.5C 169.754,270.31 168.754,270.31 167.5,266.5 Z"/></g>
<g><path style="opacity:1" fill="#bddef8" d="M 99.5,268.5 C 99.56,267.957 99.8933,267.624 100.5,267.5C 105.594,270.463 110.428,273.796 115,277.5C 116.946,280.377 118.279,283.377 119,286.5C 112.33,280.662 105.83,274.662 99.5,268.5 Z"/></g>
<g><path style="opacity:1" fill="#bbddf8" d="M 400.5,267.5 C 401.239,267.369 401.906,267.536 402.5,268C 397.833,272.667 393.167,277.333 388.5,282C 386.309,283.919 383.976,285.253 381.5,286C 385.743,277.589 392.077,271.422 400.5,267.5 Z"/></g>
<g><path style="opacity:1" fill="#172772" d="M 330.5,270.5 C 332.465,270.948 332.798,271.948 331.5,273.5C 330.614,272.675 330.281,271.675 330.5,270.5 Z"/></g>
<g><path style="opacity:1" fill="#448fd8" d="M 255.5,271.5 C 255.833,271.5 256.167,271.5 256.5,271.5C 257.434,272.568 257.768,273.901 257.5,275.5C 255.365,275.853 254.032,275.02 253.5,273C 253.836,271.97 254.503,271.47 255.5,271.5 Z"/></g>
<g><path style="opacity:1" fill="#25347b" d="M 169.5,273.5 C 173.31,274.754 173.31,275.754 169.5,276.5C 169.5,275.5 169.5,274.5 169.5,273.5 Z"/></g>
<g><path style="opacity:1" fill="#4883c7" d="M 262.5,279.5 C 262.5,279.167 262.5,278.833 262.5,278.5C 264.088,275.782 265.421,275.948 266.5,279C 265.421,282.052 264.088,282.218 262.5,279.5 Z"/></g>
<g><path style="opacity:1" fill="#4085cd" d="M 231.5,278.5 C 231.5,279.167 231.5,279.833 231.5,280.5C 229.907,281.867 228.574,281.534 227.5,279.5C 228.574,277.466 229.907,277.133 231.5,278.5 Z"/></g>
<g><path style="opacity:1" fill="#1e2d77" d="M 328.5,277.5 C 332.31,278.754 332.31,279.754 328.5,280.5C 328.5,279.5 328.5,278.5 328.5,277.5 Z"/></g>
<g><path style="opacity:1" fill="#bbddf8" d="M 146.5,279.5 C 147.043,279.56 147.376,279.893 147.5,280.5C 143.576,288.106 140.742,296.106 139,304.5C 137.466,300.289 137.133,295.956 138,291.5C 140.664,287.343 143.497,283.343 146.5,279.5 Z"/></g>
<g><path style="opacity:1" fill="#162772" d="M 171.5,281.5 C 174.548,281.494 175.048,282.494 173,284.5C 171.961,283.756 171.461,282.756 171.5,281.5 Z"/></g>
<g><path style="opacity:1" fill="#b9ddf8" d="M 353.5,280.5 C 363.079,285.75 366.246,294.084 363,305.5C 361.284,296.504 358.117,288.171 353.5,280.5 Z"/></g>
<g><path style="opacity:1" fill="#407bc0" d="M 236.5,283.5 C 236.5,283.833 236.5,284.167 236.5,284.5C 234.912,287.218 233.579,287.052 232.5,284C 233.579,280.948 234.912,280.782 236.5,283.5 Z"/></g>
<g><path style="opacity:1" fill="#172772" d="M 325.5,285.5 C 326.675,285.281 327.675,285.614 328.5,286.5C 326.948,287.798 325.948,287.465 325.5,285.5 Z"/></g>
<g><path style="opacity:1" fill="#448ed7" d="M 257.5,289.5 C 257.5,288.5 257.5,287.5 257.5,286.5C 259.023,285.254 260.023,285.754 260.5,288C 260.106,290.28 259.106,290.78 257.5,289.5 Z"/></g>
<g><path style="opacity:1" fill="#142671" d="M 174.5,288.5 C 177.674,288.952 178.007,289.952 175.5,291.5C 174.614,290.675 174.281,289.675 174.5,288.5 Z"/></g>
<g><path style="opacity:1" fill="#0f2570" d="M 322.5,292.5 C 323.675,292.281 324.675,292.614 325.5,293.5C 323.948,294.798 322.948,294.465 322.5,292.5 Z"/></g>
<g><path style="opacity:1" fill="#baddf8" d="M 102.5,293.5 C 113.469,294.267 122.136,299.433 128.5,309C 124.858,307.686 121.191,306.019 117.5,304C 112.62,300.28 107.62,296.78 102.5,293.5 Z"/></g>
<g><path style="opacity:1" fill="#bddef8" d="M 395.5,293.5 C 396.239,293.369 396.906,293.536 397.5,294C 390.681,299.579 383.347,304.412 375.5,308.5C 375.167,308.167 374.833,307.833 374.5,307.5C 379.751,300.053 386.751,295.386 395.5,293.5 Z"/></g>
<g><path style="opacity:1" fill="#26377d" d="M 177.5,295.5 C 178.5,295.5 179.5,295.5 180.5,295.5C 179.754,299.31 178.754,299.31 177.5,295.5 Z"/></g>
<g><path style="opacity:1" fill="#27377e" d="M 319.5,298.5 C 321.048,298.821 321.715,299.821 321.5,301.5C 318.752,301.598 318.086,300.598 319.5,298.5 Z"/></g>
<g><path style="opacity:1" fill="#2c3980" d="M 182.5,301.5 C 184.048,301.821 184.715,302.821 184.5,304.5C 181.752,304.598 181.086,303.598 182.5,301.5 Z"/></g>
<g><path style="opacity:1" fill="#24265d" d="M 300.5,309.5 C 266.5,309.5 232.5,309.5 198.5,309.5C 194.02,309.35 192.02,307.017 192.5,302.5C 204.833,302.5 217.167,302.5 229.5,302.5C 229.36,304.124 230.027,305.29 231.5,306C 243.5,306.667 255.5,306.667 267.5,306C 268.973,305.29 269.64,304.124 269.5,302.5C 281.833,302.5 294.167,302.5 306.5,302.5C 306.98,307.017 304.98,309.35 300.5,309.5 Z"/></g>
<g><path style="opacity:1" fill="#162772" d="M 314.5,305.5 C 315.675,305.281 316.675,305.614 317.5,306.5C 315.948,307.798 314.948,307.465 314.5,305.5 Z"/></g>
<g><path style="opacity:1" fill="#09206d" d="M 189.5,310.5 C 188.5,310.5 187.5,310.5 186.5,310.5C 187.5,307.833 188.5,307.833 189.5,310.5 Z"/></g>
<g><path style="opacity:1" fill="#beddf6" d="M 363.5,312.5 C 364.167,312.5 364.833,312.5 365.5,312.5C 370.761,313.337 376.095,314.504 381.5,316C 383.848,316.346 385.681,317.513 387,319.5C 387.726,324.552 387.559,329.552 386.5,334.5C 386.329,345.388 385.329,356.055 383.5,366.5C 383.586,365.504 383.252,364.671 382.5,364C 379.754,362.25 376.754,361.25 373.5,361C 363.555,359.505 353.555,358.671 343.5,358.5C 281.833,358.5 220.167,358.5 158.5,358.5C 158.737,359.791 158.404,360.791 157.5,361.5C 153.724,360.175 149.557,359.509 145,359.5C 136.581,358.995 128.415,360.162 120.5,363C 119.627,364.045 118.627,364.878 117.5,365.5C 116.2,355.198 115.2,344.865 114.5,334.5C 114.369,329.319 114.369,324.319 114.5,319.5C 115.5,318.667 116.5,317.833 117.5,317C 122.874,315.16 128.207,313.66 133.5,312.5C 135.167,312.5 136.833,312.5 138.5,312.5C 149.639,311.866 160.306,310.866 170.5,309.5C 173.272,310.767 175.939,310.767 178.5,309.5C 181.054,310.388 183.721,310.721 186.5,310.5C 187.5,310.5 188.5,310.5 189.5,310.5C 192.713,310.81 195.713,310.477 198.5,309.5C 232.5,309.5 266.5,309.5 300.5,309.5C 307.648,310.492 314.981,310.825 322.5,310.5C 325.279,310.721 327.946,310.388 330.5,309.5C 331.793,310.158 333.293,310.492 335,310.5C 336.981,310.371 338.647,309.704 340,308.5C 340.483,309.448 340.649,310.448 340.5,311.5C 348.191,311.403 355.858,311.737 363.5,312.5 Z"/></g>
<g><path style="opacity:1" fill="#f7f9f8" d="M 141.5,322.5 C 143.515,324.676 145.182,327.176 146.5,330C 154.931,329.355 156.098,331.521 150,336.5C 149.259,339.562 149.425,342.562 150.5,345.5C 150,345.833 149.5,346.167 149,346.5C 146.551,345.359 144.051,344.359 141.5,343.5C 139.063,345.227 136.396,346.06 133.5,346C 134.617,342.927 134.784,339.76 134,336.5C 132.846,335.257 131.512,334.257 130,333.5C 129.517,332.552 129.351,331.552 129.5,330.5C 132.187,330.664 134.854,330.497 137.5,330C 138.973,327.552 140.307,325.052 141.5,322.5 Z"/></g>
<g><path style="opacity:1" fill="#f8f9f8" d="M 358.5,322.5 C 360.858,324.168 362.524,326.501 363.5,329.5C 366.5,330.333 369.5,331.167 372.5,332C 370.667,333.833 368.833,335.667 367,337.5C 367.314,340.546 367.147,343.546 366.5,346.5C 364.278,345.222 361.944,344.222 359.5,343.5C 357.056,344.222 354.722,345.222 352.5,346.5C 352.101,343.578 351.934,340.578 352,337.5C 344.392,331.867 345.559,329.2 355.5,329.5C 356.788,327.261 357.788,324.928 358.5,322.5 Z"/></g>
<g><path style="opacity:1" fill="#091c6a" d="M 180.5,327.5 C 182.288,327.215 183.955,327.548 185.5,328.5C 187.667,333.5 189.833,338.5 192,343.5C 194.973,338.754 197.473,333.754 199.5,328.5C 201.167,327.167 202.833,327.167 204.5,328.5C 207.038,334.408 209.705,340.242 212.5,346C 210.527,346.495 208.527,346.662 206.5,346.5C 206.67,345.178 206.337,344.011 205.5,343C 202.854,342.503 200.187,342.336 197.5,342.5C 197.67,343.822 197.337,344.989 196.5,346C 193.518,346.498 190.518,346.665 187.5,346.5C 187.625,343.107 185.958,341.774 182.5,342.5C 179.471,342.956 176.971,344.29 175,346.5C 174.167,346.167 173.333,345.833 172.5,345.5C 175.181,339.474 177.848,333.474 180.5,327.5 Z"/></g>
<g><path style="opacity:1" fill="#0a1d6a" d="M 231.5,346.5 C 231.664,343.813 231.497,341.146 231,338.5C 230.283,339.044 229.783,339.711 229.5,340.5C 228.75,343.373 227.083,345.373 224.5,346.5C 222.207,344.608 220.374,342.275 219,339.5C 218.503,341.81 218.337,344.143 218.5,346.5C 216.833,346.5 215.167,346.5 213.5,346.5C 213.5,340.167 213.5,333.833 213.5,327.5C 215.467,327.261 217.301,327.594 219,328.5C 220.746,332.327 222.746,335.993 225,339.5C 227.254,335.993 229.254,332.327 231,328.5C 232.356,327.62 233.856,327.286 235.5,327.5C 235.5,333.833 235.5,340.167 235.5,346.5C 234.167,346.5 232.833,346.5 231.5,346.5 Z"/></g>
<g><path style="opacity:1" fill="#051b69" d="M 253.5,331.5 C 250.5,331.5 247.5,331.5 244.5,331.5C 244.263,332.791 244.596,333.791 245.5,334.5C 247.833,334.5 250.167,334.5 252.5,334.5C 252.5,335.833 252.5,337.167 252.5,338.5C 249.833,338.5 247.167,338.5 244.5,338.5C 244.5,339.833 244.5,341.167 244.5,342.5C 247.5,342.5 250.5,342.5 253.5,342.5C 253.5,343.833 253.5,345.167 253.5,346.5C 248.833,346.5 244.167,346.5 239.5,346.5C 239.5,340.167 239.5,333.833 239.5,327.5C 244.167,327.5 248.833,327.5 253.5,327.5C 253.5,328.833 253.5,330.167 253.5,331.5 Z"/></g>
<g><path style="opacity:1" fill="#051b69" d="M 331.5,331.5 C 328.5,331.5 325.5,331.5 322.5,331.5C 322.263,332.791 322.596,333.791 323.5,334.5C 325.833,334.5 328.167,334.5 330.5,334.5C 330.5,335.833 330.5,337.167 330.5,338.5C 327.833,338.5 325.167,338.5 322.5,338.5C 322.5,339.833 322.5,341.167 322.5,342.5C 325.5,342.5 328.5,342.5 331.5,342.5C 331.5,343.833 331.5,345.167 331.5,346.5C 326.833,346.5 322.167,346.5 317.5,346.5C 317.5,340.167 317.5,333.833 317.5,327.5C 322.167,327.5 326.833,327.5 331.5,327.5C 331.5,328.833 331.5,330.167 331.5,331.5 Z"/></g>
<g><path style="opacity:1" fill="#11226e" d="M 261.5,327.5 C 266.087,326.885 270.087,328.052 273.5,331C 272.601,332.236 271.434,333.07 270,333.5C 267.547,332.507 265.047,332.34 262.5,333C 259.005,339.521 261.005,342.187 268.5,341C 269,340.5 269.5,340 270,339.5C 271.074,340.618 272.24,341.618 273.5,342.5C 268.243,347.229 262.743,347.562 257,343.5C 253.994,336.771 255.494,331.438 261.5,327.5 Z"/></g>
<g><path style="opacity:1" fill="#10216d" d="M 287.5,327.5 C 292.087,326.885 296.087,328.052 299.5,331C 298.601,332.236 297.434,333.07 296,333.5C 293.547,332.507 291.047,332.34 288.5,333C 285.005,339.521 287.005,342.187 294.5,341C 295.819,339.372 297.152,339.539 298.5,341.5C 299.607,340.978 300.774,340.645 302,340.5C 304.281,342.028 306.781,342.528 309.5,342C 310.833,341.333 310.833,340.667 309.5,340C 306.194,339.308 303.36,337.808 301,335.5C 301.768,327.565 305.935,325.398 313.5,329C 314.337,330.011 314.67,331.178 314.5,332.5C 313.178,332.33 312.011,332.663 311,333.5C 309.89,331.963 308.39,331.297 306.5,331.5C 306.33,332.822 306.663,333.989 307.5,335C 316.242,336.346 317.576,340.013 311.5,346C 307.05,347.114 303.05,346.28 299.5,343.5C 293.866,347.297 288.366,347.297 283,343.5C 279.994,336.771 281.494,331.438 287.5,327.5 Z"/></g>
<g><path style="opacity:1" fill="#637db0" d="M 253.5,331.5 C 250.523,331.902 247.857,332.902 245.5,334.5C 244.596,333.791 244.263,332.791 244.5,331.5C 247.5,331.5 250.5,331.5 253.5,331.5 Z"/></g>
<g><path style="opacity:1" fill="#637db0" d="M 331.5,331.5 C 328.523,331.902 325.857,332.902 323.5,334.5C 322.596,333.791 322.263,332.791 322.5,331.5C 325.5,331.5 328.5,331.5 331.5,331.5 Z"/></g>
<g><path style="opacity:1" fill="#a6d2f3" d="M 114.5,334.5 C 115.2,344.865 116.2,355.198 117.5,365.5C 117.444,368.561 118.778,370.728 121.5,372C 131.455,371.011 141.455,370.677 151.5,371C 152.949,372.102 154.282,373.269 155.5,374.5C 155.148,377.079 153.814,378.913 151.5,380C 133.533,378.829 115.533,378.496 97.5,379C 88.3362,379.638 79.3362,381.138 70.5,383.5C 73.2862,374.428 77.2862,365.928 82.5,358C 75.3022,353.233 67.6355,349.233 59.5,346C 65.9421,341.962 72.9421,339.296 80.5,338C 91.7107,335.625 103.044,334.458 114.5,334.5 Z"/></g>
<g><path style="opacity:1" fill="#a6d2f3" d="M 386.5,334.5 C 403.955,334.68 420.955,337.513 437.5,343C 439.116,343.615 440.449,344.615 441.5,346C 433.676,349.745 426.009,353.745 418.5,358C 423.739,365.644 428.073,373.81 431.5,382.5C 431,382.833 430.5,383.167 430,383.5C 415.378,380.021 400.545,378.354 385.5,378.5C 373.477,378.967 361.477,379.467 349.5,380C 347.658,378.654 346.658,376.821 346.5,374.5C 347.316,372.856 348.65,371.69 350.5,371C 360.22,370.627 369.887,370.96 379.5,372C 382.215,371.125 383.548,369.292 383.5,366.5C 385.329,356.055 386.329,345.388 386.5,334.5 Z"/></g>
<g><path style="opacity:1" fill="#a5c3e3" d="M 181.5,334.5 C 183.121,334.787 184.121,335.787 184.5,337.5C 183.277,338.614 181.944,338.781 180.5,338C 181.337,336.989 181.67,335.822 181.5,334.5 Z"/></g>
<g><path style="opacity:1" fill="#accae8" d="M 201.5,334.5 C 203.104,335.287 203.771,336.62 203.5,338.5C 202.5,338.5 201.5,338.5 200.5,338.5C 200.433,337.041 200.766,335.708 201.5,334.5 Z"/></g>
<g><path style="opacity:1" fill="#637db0" d="M 252.5,334.5 C 253.451,335.919 253.784,337.585 253.5,339.5C 250.753,339.187 248.086,339.52 245.5,340.5C 248.306,341.168 250.972,341.834 253.5,342.5C 250.5,342.5 247.5,342.5 244.5,342.5C 244.5,341.167 244.5,339.833 244.5,338.5C 247.167,338.5 249.833,338.5 252.5,338.5C 252.5,337.167 252.5,335.833 252.5,334.5 Z"/></g>
<g><path style="opacity:1" fill="#637db0" d="M 330.5,334.5 C 331.451,335.919 331.784,337.585 331.5,339.5C 328.753,339.187 326.086,339.52 323.5,340.5C 326.306,341.168 328.972,341.834 331.5,342.5C 328.5,342.5 325.5,342.5 322.5,342.5C 322.5,341.167 322.5,339.833 322.5,338.5C 325.167,338.5 327.833,338.5 330.5,338.5C 330.5,337.167 330.5,335.833 330.5,334.5 Z"/></g>
<g><path style="opacity:1" fill="#657fb2" d="M 231.5,346.5 C 230.833,344.5 230.167,342.5 229.5,340.5C 229.783,339.711 230.283,339.044 231,338.5C 231.497,341.146 231.664,343.813 231.5,346.5 Z"/></g>
<g><path style="opacity:1" fill="#578db5" d="M 157.5,361.5 C 156.575,365.79 155.909,370.124 155.5,374.5C 154.282,373.269 152.949,372.102 151.5,371C 141.455,370.677 131.455,371.011 121.5,372C 118.778,370.728 117.444,368.561 117.5,365.5C 118.627,364.878 119.627,364.045 120.5,363C 128.415,360.162 136.581,358.995 145,359.5C 149.557,359.509 153.724,360.175 157.5,361.5 Z"/></g>
<g><path style="opacity:1" fill="#588eb5" d="M 343.5,358.5 C 353.555,358.671 363.555,359.505 373.5,361C 376.754,361.25 379.754,362.25 382.5,364C 383.252,364.671 383.586,365.504 383.5,366.5C 383.548,369.292 382.215,371.125 379.5,372C 369.887,370.96 360.22,370.627 350.5,371C 348.65,371.69 347.316,372.856 346.5,374.5C 345.87,369.088 344.87,363.755 343.5,358.5 Z"/></g>
</svg>
