<?xml version="1.0" encoding="UTF-8"?>
<!DOCTYPE svg PUBLIC "-//W3C//DTD SVG 1.1//EN" "http://www.w3.org/Graphics/SVG/1.1/DTD/svg11.dtd">
<svg xmlns="http://www.w3.org/2000/svg" version="1.1" width="381px" height="311px" style="shape-rendering:geometricPrecision; text-rendering:geometricPrecision; image-rendering:optimizeQuality; fill-rule:evenodd; clip-rule:evenodd" xmlns:xlink="http://www.w3.org/1999/xlink">
<g><path style="opacity:1" fill="#f7f9f9" d="M -0.5,-0.5 C 3.5,-0.5 7.5,-0.5 11.5,-0.5C 7.5,3.83333 3.5,8.16667 -0.5,12.5C -0.5,8.16667 -0.5,3.83333 -0.5,-0.5 Z"/></g>
<g><path style="opacity:1" fill="#c0e8fe" d="M 11.5,-0.5 C 129.5,-0.5 247.5,-0.5 365.5,-0.5C 371.253,4.91587 376.253,10.9159 380.5,17.5C 380.5,94.8333 380.5,172.167 380.5,249.5C 373.958,245.929 366.958,243.429 359.5,242C 348.228,240.174 336.895,239.008 325.5,238.5C 326.559,233.552 326.726,228.552 326,223.5C 324.681,221.513 322.848,220.346 320.5,220C 315.095,218.504 309.761,217.337 304.5,216.5C 312.324,216.968 319.991,216.135 327.5,214C 330.102,213.117 332.269,211.617 334,209.5C 338.068,204.032 340.902,198.366 342.5,192.5C 334.631,195.178 326.965,198.345 319.5,202C 315.631,205.534 312.131,209.367 309,213.5C 311.114,207.244 313.281,200.911 315.5,194.5C 322.832,193.445 329.832,191.278 336.5,188C 342.017,181.437 345.184,173.937 346,165.5C 339.917,169.459 333.751,173.292 327.5,177C 324.301,180.566 321.467,184.4 319,188.5C 319.496,182.497 320.329,176.497 321.5,170.5C 328.447,168.61 334.614,165.276 340,160.5C 343.247,154.185 344.58,147.518 344,140.5C 334.083,146.415 327.083,154.748 323,165.5C 322.169,159.141 322.336,152.807 323.5,146.5C 328.459,143.432 332.959,139.765 337,135.5C 339.321,128.685 339.987,121.685 339,114.5C 335,119.167 331,123.833 327,128.5C 324.895,132.583 323.562,136.917 323,141.5C 321.449,135.199 320.449,128.866 320,122.5C 324.631,118.559 328.298,113.893 331,108.5C 331.643,102.373 330.976,96.3731 329,90.5C 326,95.8333 323,101.167 320,106.5C 318.898,110.416 318.231,114.416 318,118.5C 316.227,112.512 314.06,106.679 311.5,101C 314.119,96.9324 316.619,92.7658 319,88.5C 320.252,81.9918 319.086,75.9918 315.5,70.5C 310.022,78.764 308.189,87.764 310,97.5C 305.638,90.0631 302.638,82.0631 301,73.5C 297.158,69.3316 292.658,66.9983 287.5,66.5C 288.847,70.8881 290.347,75.2215 292,79.5C 296,82.8333 300,86.1667 304,89.5C 309.409,100.194 308.242,101.027 300.5,92C 296.147,91.4674 295.814,91.8007 299.5,93C 301.167,94.6667 302.833,96.3333 304.5,98C 298.609,96.0744 292.609,94.0744 286.5,92C 289.167,91.6667 291.833,91.3333 294.5,91C 290.5,90.3333 286.5,90.3333 282.5,91C 289.541,99.1877 298.541,103.021 309.5,102.5C 312.475,108.582 314.308,114.915 315,121.5C 312.51,114.009 307.343,109.842 299.5,109C 296.776,108.73 294.109,108.23 291.5,107.5C 291.167,107.833 290.833,108.167 290.5,108.5C 296.252,118.327 304.919,123.327 316.5,123.5C 317.662,129.798 318.162,136.131 318,142.5C 315.828,134.493 310.661,129.827 302.5,128.5C 300.141,126.743 297.474,125.909 294.5,126C 296.54,129.914 298.707,133.748 301,137.5C 306.725,141.446 312.891,144.446 319.5,146.5C 319.587,153.54 319.087,160.54 318,167.5C 317.714,158.411 313.547,151.911 305.5,148C 302.281,146.045 298.947,144.712 295.5,144C 297.186,148.542 299.019,153.042 301,157.5C 306.403,162.413 311.903,167.08 317.5,171.5C 316.517,178.283 315.017,184.949 313,191.5C 314.093,182.668 311.593,175.168 305.5,169C 302.264,166.132 298.764,163.632 295,161.5C 294.898,166.563 295.565,171.563 297,176.5C 300.66,181.16 304.66,185.493 309,189.5C 310.308,191.134 311.142,192.968 311.5,195C 310.03,200.442 307.864,205.609 305,210.5C 305.164,205.845 305.164,201.179 305,196.5C 301.085,189.752 296.252,183.752 290.5,178.5C 289.337,183.802 289.171,189.136 290,194.5C 293.574,201.08 297.574,207.413 302,213.5C 302.483,214.448 302.649,215.448 302.5,216.5C 294.858,215.737 287.191,215.403 279.5,215.5C 279.649,214.448 279.483,213.448 279,212.5C 277.647,213.704 275.981,214.371 274,214.5C 272.293,214.492 270.793,214.158 269.5,213.5C 290.999,177.777 290.832,142.11 269,106.5C 261.265,95.9307 252.098,86.9307 241.5,79.5C 214.945,64.4905 186.945,61.3238 157.5,70C 123.65,83.8544 102.817,108.688 95,144.5C 91.8667,169.244 96.7,192.244 109.5,213.5C 99.3058,214.866 88.6392,215.866 77.5,216.5C 77.3893,215.883 77.056,215.383 76.5,215C 81.8882,208.39 86.3882,201.223 90,193.5C 90.8289,188.467 90.6623,183.467 89.5,178.5C 81.5645,184.401 76.5645,192.068 74.5,201.5C 75.0081,204.849 75.1747,208.182 75,211.5C 72.2072,205.622 69.7072,199.622 67.5,193.5C 71.8181,188.681 76.3181,184.015 81,179.5C 83.6163,173.748 84.9497,167.748 85,161.5C 79.635,165.019 74.635,169.019 70,173.5C 67.7837,178.241 66.4503,183.241 66,188.5C 63.78,182.262 62.9466,175.929 63.5,169.5C 69.0952,166.074 74.2619,162.074 79,157.5C 81.1736,152.99 82.507,148.323 83,143.5C 78.4194,145.873 73.9194,148.373 69.5,151C 65.003,155.162 62.503,160.328 62,166.5C 60.8626,159.88 60.3626,153.214 60.5,146.5C 66.527,144.654 72.1936,141.987 77.5,138.5C 80.3039,134.385 82.9706,130.218 85.5,126C 74.3987,126.295 66.5654,131.462 62,141.5C 61.376,135.407 61.876,129.407 63.5,123.5C 69.6885,122.286 75.6885,120.453 81.5,118C 84.1916,115.443 86.525,112.609 88.5,109.5C 77.877,107.314 70.0437,110.981 65,120.5C 65.6005,114.026 67.4338,107.859 70.5,102C 76.4646,100.869 82.4646,99.8693 88.5,99C 91.0421,96.2888 93.7088,93.7888 96.5,91.5C 92.5411,90.3401 88.5411,90.1735 84.5,91C 87.1667,91.3333 89.8333,91.6667 92.5,92C 86.7978,94.232 81.1312,96.232 75.5,98C 78.3117,95.6284 80.1451,93.4618 81,91.5C 77.1845,93.2423 74.1845,95.909 72,99.5C 72.8807,95.7172 74.3807,92.0505 76.5,88.5C 80.7767,85.7265 84.61,82.3932 88,78.5C 90.1162,74.3724 91.1162,70.0391 91,65.5C 86.7919,67.2061 82.9586,69.5394 79.5,72.5C 77.4887,82.2543 73.8221,91.2543 68.5,99.5C 65.7083,106.374 63.2083,113.374 61,120.5C 60.8407,115.084 60.174,109.75 59,104.5C 56.3333,99.8333 53.6667,95.1667 51,90.5C 48.7364,96.6625 48.0697,102.996 49,109.5C 52.4666,114.632 56.2999,119.466 60.5,124C 59.0553,130.444 57.8887,136.944 57,143.5C 56.3396,137.852 54.6729,132.519 52,127.5C 48.3333,123.167 44.6667,118.833 41,114.5C 40.1227,121.249 40.456,127.916 42,134.5C 46.1882,139.335 51.0215,143.335 56.5,146.5C 57.6642,153.142 57.8309,159.808 57,166.5C 55.2571,162.016 53.2571,157.683 51,153.5C 45.6555,148.247 40.1555,143.914 34.5,140.5C 35.5719,146.929 37.0719,153.262 39,159.5C 44.5445,164.856 51.0445,168.522 58.5,170.5C 59.5091,176.851 60.3424,183.184 61,189.5C 58.5,185.667 56,181.833 53.5,178C 47.1667,174.167 40.8333,170.333 34.5,166.5C 35.0796,174.515 38.0796,181.681 43.5,188C 50.1954,190.933 57.0287,193.433 64,195.5C 66.4016,201.61 68.7349,207.61 71,213.5C 67.386,208.763 63.2193,204.597 58.5,201C 51.5,198.167 44.5,195.333 37.5,192.5C 39.336,200.268 43.336,207.102 49.5,213C 56.8627,216.051 64.5293,217.218 72.5,216.5C 67.2075,217.66 61.8742,219.16 56.5,221C 55.5,221.833 54.5,222.667 53.5,223.5C 53.3695,228.319 53.3695,233.319 53.5,238.5C 34.779,238.175 16.779,241.508 -0.5,248.5C -0.5,169.833 -0.5,91.1667 -0.5,12.5C 3.5,8.16667 7.5,3.83333 11.5,-0.5 Z"/></g>
<g><path style="opacity:1" fill="#f8f9f9" d="M 365.5,-0.5 C 370.5,-0.5 375.5,-0.5 380.5,-0.5C 380.5,5.5 380.5,11.5 380.5,17.5C 376.253,10.9159 371.253,4.91587 365.5,-0.5 Z"/></g>
<g><path style="opacity:1" fill="#3b5090" d="M 194.5,50.5 C 196.337,50.6395 196.67,51.3061 195.5,52.5C 194.702,52.0431 194.369,51.3764 194.5,50.5 Z"/></g>
<g><path style="opacity:1" fill="#021967" d="M 196.5,54.5 C 195.691,56.2922 195.191,58.2922 195,60.5C 194.517,59.552 194.351,58.552 194.5,57.5C 194.238,56.0222 194.571,54.6888 195.5,53.5C 196.107,53.6236 196.44,53.9569 196.5,54.5 Z"/></g>
<g><path style="opacity:1" fill="#21327a" d="M 163.5,53.5 C 169.324,53.3466 169.657,54.0133 164.5,55.5C 165.655,56.9505 167.155,57.9505 169,58.5C 169.471,62.8547 167.638,64.188 163.5,62.5C 164.833,61.8333 166.167,61.1667 167.5,60.5C 166.086,59.376 164.586,58.376 163,57.5C 162.421,56.0715 162.588,54.7382 163.5,53.5 Z"/></g>
<g><path style="opacity:1" fill="#21337a" d="M 179.5,53.5 C 180.802,54.8069 182.135,54.8069 183.5,53.5C 183.833,53.8333 184.167,54.1667 184.5,54.5C 183.675,55.3857 182.675,55.719 181.5,55.5C 181.799,57.604 181.466,59.604 180.5,61.5C 179.52,58.9135 179.187,56.2469 179.5,53.5 Z"/></g>
<g><path style="opacity:1" fill="#11226e" d="M 172.5,55.5 C 175.676,53.7271 177.343,54.7271 177.5,58.5C 172.203,59.0325 172.203,59.8658 177.5,61C 171.986,62.3265 170.319,60.4932 172.5,55.5 Z"/></g>
<g><path style="opacity:1" fill="#88a9d0" d="M 172.5,55.5 C 173.675,55.281 174.675,55.6143 175.5,56.5C 173.948,57.7979 172.948,57.4646 172.5,55.5 Z"/></g>
<g><path style="opacity:1" fill="#12236f" d="M 200.5,53.5 C 205.629,54.6144 205.629,55.281 200.5,55.5C 200.5,57.1667 200.5,58.8333 200.5,60.5C 201.552,60.3505 202.552,60.5172 203.5,61C 198.917,61.9337 197.417,60.1004 199,55.5C 199.717,54.9558 200.217,54.2891 200.5,53.5 Z"/></g>
<g><path style="opacity:1" fill="#172872" d="M 185.5,53.5 C 187.614,54.3602 188.78,56.0268 189,58.5C 189.402,57.1279 189.902,55.7946 190.5,54.5C 191.167,53.1667 191.833,53.1667 192.5,54.5C 191.833,56.1667 191.167,57.8333 190.5,59.5C 189.675,60.3857 188.675,60.719 187.5,60.5C 187.122,58.079 186.455,55.7457 185.5,53.5 Z"/></g>
<g><path style="opacity:1" fill="#6785b7" d="M 196.5,54.5 C 196.5,56.8333 196.5,59.1667 196.5,61.5C 195.5,61.5 194.5,61.5 193.5,61.5C 193.232,59.901 193.566,58.5676 194.5,57.5C 194.351,58.552 194.517,59.552 195,60.5C 195.191,58.2922 195.691,56.2922 196.5,54.5 Z"/></g>
<g><path style="opacity:1" fill="#162872" d="M 206.5,55.5 C 210.241,54.5985 212.241,55.9319 212.5,59.5C 206.739,59.7088 206.406,60.5422 211.5,62C 205.741,63.1387 204.074,60.972 206.5,55.5 Z"/></g>
<g><path style="opacity:1" fill="#99bcdf" d="M 208.5,56.5 C 210.337,56.6395 210.67,57.3061 209.5,58.5C 208.702,58.0431 208.369,57.3764 208.5,56.5 Z"/></g>
<g><path style="opacity:1" fill="#1e3078" d="M 226.5,57.5 C 228.696,57.5652 230.696,58.2319 232.5,59.5C 231.349,60.731 230.183,60.731 229,59.5C 228.5,60 228,60.5 227.5,61C 231.558,64.0481 231.225,64.8815 226.5,63.5C 226.5,64.5 226.5,65.5 226.5,66.5C 227.675,66.281 228.675,66.6143 229.5,67.5C 227.939,68.3473 226.439,68.0139 225,66.5C 224.861,63.4248 225.361,60.4248 226.5,57.5 Z"/></g>
<g><path style="opacity:1" fill="#1d2d76" d="M 138.5,63.5 C 141.838,63.1091 142.838,64.2757 141.5,67C 142.093,68.8817 143.427,69.8817 145.5,70C 144.135,71.6819 142.635,71.8486 141,70.5C 139.589,68.3496 138.755,66.0163 138.5,63.5 Z"/></g>
<g><path style="opacity:1" fill="#1b2b75" d="M 145.5,61.5 C 152.267,61.3464 152.934,63.013 147.5,66.5C 149.108,67.2421 150.775,67.4087 152.5,67C 146.469,69.7993 144.135,67.966 145.5,61.5 Z"/></g>
<g><path style="opacity:1" fill="#a7cbea" d="M 146.5,62.5 C 148.337,62.6395 148.67,63.3061 147.5,64.5C 146.702,64.0431 146.369,63.3764 146.5,62.5 Z"/></g>
<g><path style="opacity:1" fill="#202f78" d="M 233.5,62.5 C 236.778,63.9413 239.944,65.608 243,67.5C 243.044,69.7597 242.211,71.7597 240.5,73.5C 240.167,73.1667 239.833,72.8333 239.5,72.5C 240.95,71.1502 241.617,69.4835 241.5,67.5C 239.027,67.736 237.36,69.0693 236.5,71.5C 236.433,69.5756 236.1,67.5756 235.5,65.5C 234.155,66.3467 233.155,67.5134 232.5,69C 231.833,69.6667 231.167,69.6667 230.5,69C 231.793,66.9481 232.793,64.7814 233.5,62.5 Z"/></g>
<g><path style="opacity:1" fill="#0b1d6b" d="M 241.5,79.5 C 252.098,86.9307 261.265,95.9307 269,106.5C 290.832,142.11 290.999,177.777 269.5,213.5C 266.946,214.388 264.279,214.721 261.5,214.5C 280.822,186.928 284.655,157.261 273,125.5C 249.478,80.1592 212.644,62.9926 162.5,74C 119.151,91.3881 98.3175,123.555 100,170.5C 102.436,186.33 108.27,200.663 117.5,213.5C 114.939,214.767 112.272,214.767 109.5,213.5C 96.7,192.244 91.8667,169.244 95,144.5C 102.817,108.688 123.65,83.8544 157.5,70C 186.945,61.3238 214.945,64.4905 241.5,79.5 Z"/></g>
<g><path style="opacity:1" fill="#1c2d76" d="M 134.5,66.5 C 136.605,67.9875 138.272,69.9875 139.5,72.5C 134.573,76.9459 131.74,75.9459 131,69.5C 132.257,71.7458 134.09,73.0791 136.5,73.5C 136.122,71.079 135.455,68.7457 134.5,66.5 Z"/></g>
<g><path style="opacity:1" fill="#bfe5fc" d="M 261.5,214.5 C 253.981,214.825 246.648,214.492 239.5,213.5C 243.98,213.35 245.98,211.017 245.5,206.5C 233.167,206.5 220.833,206.5 208.5,206.5C 208.64,208.124 207.973,209.29 206.5,210C 194.5,210.667 182.5,210.667 170.5,210C 169.027,209.29 168.36,208.124 168.5,206.5C 156.167,206.5 143.833,206.5 131.5,206.5C 131.02,211.017 133.02,213.35 137.5,213.5C 134.713,214.477 131.713,214.81 128.5,214.5C 127.5,211.833 126.5,211.833 125.5,214.5C 122.721,214.721 120.054,214.388 117.5,213.5C 108.27,200.663 102.436,186.33 100,170.5C 98.3175,123.555 119.151,91.3881 162.5,74C 212.644,62.9926 249.478,80.1592 273,125.5C 284.655,157.261 280.822,186.928 261.5,214.5 Z"/></g>
<g><path style="opacity:1" fill="#52b2fe" d="M 68.5,99.5 C 64.1127,95.237 61.1127,90.0704 59.5,84C 60.397,78.9759 61.897,74.1426 64,69.5C 66.2586,74.3572 68.2586,79.3572 70,84.5C 70.3537,89.5717 69.8537,94.5717 68.5,99.5 Z"/></g>
<g><path style="opacity:1" fill="#1a2a74" d="M 241.5,79.5 C 242.252,75.7372 243.919,72.4039 246.5,69.5C 252.075,71.3673 252.741,74.2007 248.5,78C 246.633,78.7112 245.133,78.2112 244,76.5C 243.623,77.9423 242.79,78.9423 241.5,79.5 Z"/></g>
<g><path style="opacity:1" fill="#acd0ed" d="M 246.5,72.5 C 247.675,72.281 248.675,72.6143 249.5,73.5C 248.923,75.5499 247.59,76.5499 245.5,76.5C 245.433,75.0413 245.766,73.7079 246.5,72.5 Z"/></g>
<g><path style="opacity:1" fill="#1f3078" d="M 252.5,75.5 C 258.452,75.6091 259.786,78.1091 256.5,83C 250.398,83.2233 249.064,80.7233 252.5,75.5 Z"/></g>
<g><path style="opacity:1" fill="#071e6b" d="M 178.5,77.5 C 179.675,77.281 180.675,77.6143 181.5,78.5C 179.948,79.7979 178.948,79.4646 178.5,77.5 Z"/></g>
<g><path style="opacity:1" fill="#132671" d="M 186.5,76.5 C 189.674,76.9522 190.007,77.9522 187.5,79.5C 186.614,78.675 186.281,77.675 186.5,76.5 Z"/></g>
<g><path style="opacity:1" fill="#162671" d="M 194.5,76.5 C 196.465,76.9483 196.798,77.9483 195.5,79.5C 194.614,78.675 194.281,77.675 194.5,76.5 Z"/></g>
<g><path style="opacity:1" fill="#aed3ef" d="M 253.5,77.5 C 254.5,77.5 255.5,77.5 256.5,77.5C 256.833,80.5 255.5,81.8333 252.5,81.5C 252.433,80.0413 252.766,78.7079 253.5,77.5 Z"/></g>
<g><path style="opacity:1" fill="#bbddf8" d="M 64.5,74.5 C 68.3507,80.6243 69.3507,87.291 67.5,94.5C 65.9404,87.9162 64.9404,81.2496 64.5,74.5 Z"/></g>
<g><path style="opacity:1" fill="#172873" d="M 125.5,72.5 C 129.8,72.8153 131.467,75.1486 130.5,79.5C 126.901,79.2619 126.567,80.2619 129.5,82.5C 128.726,83.7112 127.893,83.7112 127,82.5C 125.5,80.1667 124,77.8333 122.5,75.5C 123.77,74.7124 124.77,73.7124 125.5,72.5 Z"/></g>
<g><path style="opacity:1" fill="#abd0ed" d="M 125.5,74.5 C 128.5,74.1667 129.833,75.5 129.5,78.5C 126.5,78.8333 125.167,77.5 125.5,74.5 Z"/></g>
<g><path style="opacity:1" fill="#142671" d="M 171.5,78.5 C 173.465,78.9483 173.798,79.9483 172.5,81.5C 171.614,80.675 171.281,79.675 171.5,78.5 Z"/></g>
<g><path style="opacity:1" fill="#202f78" d="M 202.5,77.5 C 204.048,77.8212 204.715,78.8212 204.5,80.5C 201.752,80.5983 201.086,79.5983 202.5,77.5 Z"/></g>
<g><path style="opacity:1" fill="#23337b" d="M 209.5,79.5 C 212.957,79.6672 213.29,80.6672 210.5,82.5C 209.614,81.675 209.281,80.675 209.5,79.5 Z"/></g>
<g><path style="opacity:1" fill="#132671" d="M 163.5,80.5 C 166.548,80.494 167.048,81.494 165,83.5C 163.961,82.7562 163.461,81.7562 163.5,80.5 Z"/></g>
<g><path style="opacity:1" fill="#172973" d="M 118.5,77.5 C 121.069,78.3956 123.069,80.0623 124.5,82.5C 124.167,82.8333 123.833,83.1667 123.5,83.5C 122.155,82.6533 121.155,81.4866 120.5,80C 119.035,79.3987 118.035,79.8987 117.5,81.5C 118.5,82.8333 119.5,84.1667 120.5,85.5C 120.167,85.8333 119.833,86.1667 119.5,86.5C 118.5,84.8333 117.167,83.5 115.5,82.5C 114.06,85.2281 114.726,87.3948 117.5,89C 114.899,88.5993 112.899,87.0993 111.5,84.5C 113.673,81.932 116.006,79.5987 118.5,77.5 Z"/></g>
<g><path style="opacity:1" fill="#28377e" d="M 216.5,81.5 C 217.5,81.5 218.5,81.5 219.5,81.5C 219.5,82.5 219.5,83.5 219.5,84.5C 218.5,84.5 217.5,84.5 216.5,84.5C 216.5,83.5 216.5,82.5 216.5,81.5 Z"/></g>
<g><path style="opacity:1" fill="#0f226e" d="M 156.5,83.5 C 157.675,83.281 158.675,83.6143 159.5,84.5C 157.948,85.7979 156.948,85.4646 156.5,83.5 Z"/></g>
<g><path style="opacity:1" fill="#0f226e" d="M 224.5,84.5 C 226.465,84.9483 226.798,85.9483 225.5,87.5C 223.481,86.8671 223.147,85.8671 224.5,84.5 Z"/></g>
<g><path style="opacity:1" fill="#21327a" d="M 149.5,86.5 C 152.957,86.6672 153.29,87.6672 150.5,89.5C 149.614,88.675 149.281,87.675 149.5,86.5 Z"/></g>
<g><path style="opacity:1" fill="#021867" d="M 188.5,86.5 C 191.195,89.2233 192.862,92.5566 193.5,96.5C 192.948,98.3334 192.115,100 191,101.5C 189.751,93.7129 188.085,93.7129 186,101.5C 183.624,95.9628 184.458,90.9628 188.5,86.5 Z"/></g>
<g><path style="opacity:1" fill="#142671" d="M 230.5,88.5 C 233.548,88.494 234.048,89.494 232,91.5C 230.961,90.7562 230.461,89.7562 230.5,88.5 Z"/></g>
<g><path style="opacity:1" fill="#1f3179" d="M 260.5,79.5 C 261.376,79.3691 262.043,79.7025 262.5,80.5C 259.833,84.5 260.5,85.1667 264.5,82.5C 265.578,84.4747 265.245,86.308 263.5,88C 265.345,87.2173 267.345,86.884 269.5,87C 267.246,88.3767 265.08,89.8767 263,91.5C 261.297,89.6527 261.464,87.8194 263.5,86C 261.953,85.6666 260.62,86.1666 259.5,87.5C 258.692,87.1924 258.025,86.6924 257.5,86C 258.914,84.0065 259.914,81.8398 260.5,79.5 Z"/></g>
<g><path style="opacity:1" fill="#23337b" d="M 142.5,90.5 C 143.5,90.5 144.5,90.5 145.5,90.5C 144.754,94.31 143.754,94.31 142.5,90.5 Z"/></g>
<g><path style="opacity:1" fill="#50b2fe" d="M 304.5,216.5 C 303.833,216.5 303.167,216.5 302.5,216.5C 302.649,215.448 302.483,214.448 302,213.5C 297.574,207.413 293.574,201.08 290,194.5C 289.171,189.136 289.337,183.802 290.5,178.5C 296.252,183.752 301.085,189.752 305,196.5C 305.164,201.179 305.164,205.845 305,210.5C 307.864,205.609 310.03,200.442 311.5,195C 311.142,192.968 310.308,191.134 309,189.5C 304.66,185.493 300.66,181.16 297,176.5C 295.565,171.563 294.898,166.563 295,161.5C 298.764,163.632 302.264,166.132 305.5,169C 311.593,175.168 314.093,182.668 313,191.5C 315.017,184.949 316.517,178.283 317.5,171.5C 311.903,167.08 306.403,162.413 301,157.5C 299.019,153.042 297.186,148.542 295.5,144C 298.947,144.712 302.281,146.045 305.5,148C 313.547,151.911 317.714,158.411 318,167.5C 319.087,160.54 319.587,153.54 319.5,146.5C 312.891,144.446 306.725,141.446 301,137.5C 298.707,133.748 296.54,129.914 294.5,126C 297.474,125.909 300.141,126.743 302.5,128.5C 310.661,129.827 315.828,134.493 318,142.5C 318.162,136.131 317.662,129.798 316.5,123.5C 304.919,123.327 296.252,118.327 290.5,108.5C 290.833,108.167 291.167,107.833 291.5,107.5C 294.109,108.23 296.776,108.73 299.5,109C 307.343,109.842 312.51,114.009 315,121.5C 314.308,114.915 312.475,108.582 309.5,102.5C 298.541,103.021 289.541,99.1877 282.5,91C 286.5,90.3333 290.5,90.3333 294.5,91C 291.833,91.3333 289.167,91.6667 286.5,92C 292.609,94.0744 298.609,96.0744 304.5,98C 302.833,96.3333 301.167,94.6667 299.5,93C 295.814,91.8007 296.147,91.4674 300.5,92C 308.242,101.027 309.409,100.194 304,89.5C 300,86.1667 296,82.8333 292,79.5C 290.347,75.2215 288.847,70.8881 287.5,66.5C 292.658,66.9983 297.158,69.3316 301,73.5C 302.638,82.0631 305.638,90.0631 310,97.5C 308.189,87.764 310.022,78.764 315.5,70.5C 319.086,75.9918 320.252,81.9918 319,88.5C 316.619,92.7658 314.119,96.9324 311.5,101C 314.06,106.679 316.227,112.512 318,118.5C 318.231,114.416 318.898,110.416 320,106.5C 323,101.167 326,95.8333 329,90.5C 330.976,96.3731 331.643,102.373 331,108.5C 328.298,113.893 324.631,118.559 320,122.5C 320.449,128.866 321.449,135.199 323,141.5C 323.562,136.917 324.895,132.583 327,128.5C 331,123.833 335,119.167 339,114.5C 339.987,121.685 339.321,128.685 337,135.5C 332.959,139.765 328.459,143.432 323.5,146.5C 322.336,152.807 322.169,159.141 323,165.5C 327.083,154.748 334.083,146.415 344,140.5C 344.58,147.518 343.247,154.185 340,160.5C 334.614,165.276 328.447,168.61 321.5,170.5C 320.329,176.497 319.496,182.497 319,188.5C 321.467,184.4 324.301,180.566 327.5,177C 333.751,173.292 339.917,169.459 346,165.5C 345.184,173.937 342.017,181.437 336.5,188C 329.832,191.278 322.832,193.445 315.5,194.5C 313.281,200.911 311.114,207.244 309,213.5C 312.131,209.367 315.631,205.534 319.5,202C 326.965,198.345 334.631,195.178 342.5,192.5C 340.902,198.366 338.068,204.032 334,209.5C 332.269,211.617 330.102,213.117 327.5,214C 319.991,216.135 312.324,216.968 304.5,216.5 Z"/></g>
<g><path style="opacity:1" fill="#b6dbf8" d="M 314.5,74.5 C 315.124,74.9169 315.457,75.5836 315.5,76.5C 315.052,82.7147 313.885,88.7147 312,94.5C 311.5,92 311,89.5 310.5,87C 311.7,82.7731 313.033,78.6064 314.5,74.5 Z"/></g>
<g><path style="opacity:1" fill="#baddf8" d="M 291.5,70.5 C 294.226,70.0832 296.726,71.0832 299,73.5C 301.022,76.9672 302.022,80.6338 302,84.5C 298.723,79.5863 295.223,74.9197 291.5,70.5 Z"/></g>
<g><path style="opacity:1" fill="#152872" d="M 237.5,92.5 C 239.465,92.9483 239.798,93.9483 238.5,95.5C 236.481,94.8671 236.147,93.8671 237.5,92.5 Z"/></g>
<g><path style="opacity:1" fill="#192b75" d="M 107.5,87.5 C 113.488,87.664 114.821,90.164 111.5,95C 105.95,94.6348 104.617,92.1348 107.5,87.5 Z"/></g>
<g><path style="opacity:1" fill="#afd3f0" d="M 107.5,89.5 C 110.5,89.1667 111.833,90.5 111.5,93.5C 108.5,93.8333 107.167,92.5 107.5,89.5 Z"/></g>
<g><path style="opacity:1" fill="#304085" d="M 268.5,89.5 C 273.378,90.0309 274.545,92.3643 272,96.5C 270.981,95.3128 269.814,94.3128 268.5,93.5C 268.165,95.0026 268.165,96.336 268.5,97.5C 265.937,94.9201 265.937,92.2535 268.5,89.5 Z"/></g>
<g><path style="opacity:1" fill="#4eb1fe" d="M 77.5,216.5 C 75.8333,216.5 74.1667,216.5 72.5,216.5C 64.5293,217.218 56.8627,216.051 49.5,213C 43.336,207.102 39.336,200.268 37.5,192.5C 44.5,195.333 51.5,198.167 58.5,201C 63.2193,204.597 67.386,208.763 71,213.5C 68.7349,207.61 66.4016,201.61 64,195.5C 57.0287,193.433 50.1954,190.933 43.5,188C 38.0796,181.681 35.0796,174.515 34.5,166.5C 40.8333,170.333 47.1667,174.167 53.5,178C 56,181.833 58.5,185.667 61,189.5C 60.3424,183.184 59.5091,176.851 58.5,170.5C 51.0445,168.522 44.5445,164.856 39,159.5C 37.0719,153.262 35.5719,146.929 34.5,140.5C 40.1555,143.914 45.6555,148.247 51,153.5C 53.2571,157.683 55.2571,162.016 57,166.5C 57.8309,159.808 57.6642,153.142 56.5,146.5C 51.0215,143.335 46.1882,139.335 42,134.5C 40.456,127.916 40.1227,121.249 41,114.5C 44.6667,118.833 48.3333,123.167 52,127.5C 54.6729,132.519 56.3396,137.852 57,143.5C 57.8887,136.944 59.0553,130.444 60.5,124C 56.2999,119.466 52.4666,114.632 49,109.5C 48.0697,102.996 48.7364,96.6625 51,90.5C 53.6667,95.1667 56.3333,99.8333 59,104.5C 60.174,109.75 60.8407,115.084 61,120.5C 63.2083,113.374 65.7083,106.374 68.5,99.5C 73.8221,91.2543 77.4887,82.2543 79.5,72.5C 82.9586,69.5394 86.7919,67.2061 91,65.5C 91.1162,70.0391 90.1162,74.3724 88,78.5C 84.61,82.3932 80.7767,85.7265 76.5,88.5C 74.3807,92.0505 72.8807,95.7172 72,99.5C 74.1845,95.909 77.1845,93.2423 81,91.5C 80.1451,93.4618 78.3117,95.6284 75.5,98C 81.1312,96.232 86.7978,94.232 92.5,92C 89.8333,91.6667 87.1667,91.3333 84.5,91C 88.5411,90.1735 92.5411,90.3401 96.5,91.5C 93.7088,93.7888 91.0421,96.2888 88.5,99C 82.4646,99.8693 76.4646,100.869 70.5,102C 67.4338,107.859 65.6005,114.026 65,120.5C 70.0437,110.981 77.877,107.314 88.5,109.5C 86.525,112.609 84.1916,115.443 81.5,118C 75.6885,120.453 69.6885,122.286 63.5,123.5C 61.876,129.407 61.376,135.407 62,141.5C 66.5654,131.462 74.3987,126.295 85.5,126C 82.9706,130.218 80.3039,134.385 77.5,138.5C 72.1936,141.987 66.527,144.654 60.5,146.5C 60.3626,153.214 60.8626,159.88 62,166.5C 62.503,160.328 65.003,155.162 69.5,151C 73.9194,148.373 78.4194,145.873 83,143.5C 82.507,148.323 81.1736,152.99 79,157.5C 74.2619,162.074 69.0952,166.074 63.5,169.5C 62.9466,175.929 63.78,182.262 66,188.5C 66.4503,183.241 67.7837,178.241 70,173.5C 74.635,169.019 79.635,165.019 85,161.5C 84.9497,167.748 83.6163,173.748 81,179.5C 76.3181,184.015 71.8181,188.681 67.5,193.5C 69.7072,199.622 72.2072,205.622 75,211.5C 75.1747,208.182 75.0081,204.849 74.5,201.5C 76.5645,192.068 81.5645,184.401 89.5,178.5C 90.6623,183.467 90.8289,188.467 90,193.5C 86.3882,201.223 81.8882,208.39 76.5,215C 77.056,215.383 77.3893,215.883 77.5,216.5 Z"/></g>
<g><path style="opacity:1" fill="#b9dcf8" d="M 85.5,69.5 C 86.552,69.3505 87.552,69.5172 88.5,70C 84.3879,74.3911 80.8879,79.2245 78,84.5C 77.3155,77.8689 79.8155,72.8689 85.5,69.5 Z"/></g>
<g><path style="opacity:1" fill="#1b2c75" d="M 100.5,91.5 C 101.376,91.3691 102.043,91.7025 102.5,92.5C 99.4127,96.6848 100.413,98.8514 105.5,99C 108.893,95.9313 109.227,96.4313 106.5,100.5C 98.9258,101.256 96.9258,98.2558 100.5,91.5 Z"/></g>
<g><path style="opacity:1" fill="#132671" d="M 137.5,94.5 C 139.625,95.3676 139.791,96.3676 138,97.5C 136.317,96.8235 136.15,95.8235 137.5,94.5 Z"/></g>
<g><path style="opacity:1" fill="#152771" d="M 275.5,95.5 C 277.047,96.5152 277.88,97.8486 278,99.5C 277.439,98.9781 276.772,98.6448 276,98.5C 274.418,100.029 272.585,100.529 270.5,100C 272.063,98.264 273.73,96.764 275.5,95.5 Z"/></g>
<g><path style="opacity:1" fill="#24337b" d="M 242.5,97.5 C 243.5,97.5 244.5,97.5 245.5,97.5C 244.754,101.31 243.754,101.31 242.5,97.5 Z"/></g>
<g><path style="opacity:1" fill="#b8dcf8" d="M 52.5,97.5 C 58.2034,103.291 60.3701,110.291 59,118.5C 55.7255,111.843 53.5588,104.843 52.5,97.5 Z"/></g>
<g><path style="opacity:1" fill="#bbddf8" d="M 326.5,97.5 C 327.043,97.56 327.376,97.8933 327.5,98.5C 325.837,105.323 323.67,111.989 321,118.5C 320.333,114.833 320.333,111.167 321,107.5C 323.062,104.277 324.896,100.943 326.5,97.5 Z"/></g>
<g><path style="opacity:1" fill="#172772" d="M 130.5,100.5 C 131.675,100.281 132.675,100.614 133.5,101.5C 131.948,102.798 130.948,102.465 130.5,100.5 Z"/></g>
<g><path style="opacity:1" fill="#1b2d76" d="M 248.5,102.5 C 252.31,103.754 252.31,104.754 248.5,105.5C 248.5,104.5 248.5,103.5 248.5,102.5 Z"/></g>
<g><path style="opacity:1" fill="#021867" d="M 184.5,105.5 C 191.047,105.442 197.381,106.442 203.5,108.5C 202.624,109.251 201.624,109.751 200.5,110C 192.833,110.667 185.167,110.667 177.5,110C 175.956,109.71 174.623,109.044 173.5,108C 177.28,107.082 180.946,106.249 184.5,105.5 Z"/></g>
<g><path style="opacity:1" fill="#1e2e77" d="M 126.5,105.5 C 128.048,105.821 128.715,106.821 128.5,108.5C 125.752,108.598 125.086,107.598 126.5,105.5 Z"/></g>
<g><path style="opacity:1" fill="#1f3078" d="M 253.5,108.5 C 257.31,109.754 257.31,110.754 253.5,111.5C 253.5,110.5 253.5,109.5 253.5,108.5 Z"/></g>
<g><path style="opacity:1" fill="#b8dcf8" d="M 81.5,109.5 C 82.8734,109.343 84.2068,109.51 85.5,110C 79.0864,112.62 73.253,116.12 68,120.5C 68.5413,117.608 70.0413,115.108 72.5,113C 75.5711,111.704 78.5711,110.538 81.5,109.5 Z"/></g>
<g><path style="opacity:1" fill="#011766" d="M 173.5,110.5 C 183.334,113.15 193.167,113.15 203,110.5C 203.733,114.972 203.233,119.305 201.5,123.5C 200.522,123.023 199.689,122.357 199,121.5C 198.311,122.357 197.478,123.023 196.5,123.5C 195.052,121.333 193.885,119 193,116.5C 192.13,117.108 191.63,117.941 191.5,119C 192.572,123.124 192.738,127.29 192,131.5C 191.333,132.167 190.667,132.833 190,133.5C 188.254,130.118 186.754,126.618 185.5,123C 182.83,122.457 180.33,122.957 178,124.5C 175.974,123.48 174.641,121.813 174,119.5C 173.502,116.518 173.335,113.518 173.5,110.5 Z"/></g>
<g><path style="opacity:1" fill="#b9ddf8" d="M 294.5,110.5 C 298.859,109.936 303.192,110.769 307.5,113C 309.388,114.95 310.554,117.117 311,119.5C 305.846,115.841 300.346,112.841 294.5,110.5 Z"/></g>
<g><path style="opacity:1" fill="#25357c" d="M 121.5,111.5 C 123.048,111.821 123.715,112.821 123.5,114.5C 120.752,114.598 120.086,113.598 121.5,111.5 Z"/></g>
<g><path style="opacity:1" fill="#2c3980" d="M 258.5,114.5 C 260.048,114.821 260.715,115.821 260.5,117.5C 257.752,117.598 257.086,116.598 258.5,114.5 Z"/></g>
<g><path style="opacity:1" fill="#25357c" d="M 116.5,118.5 C 117.5,118.5 118.5,118.5 119.5,118.5C 118.754,122.31 117.754,122.31 116.5,118.5 Z"/></g>
<g><path style="opacity:1" fill="#23327a" d="M 261.5,121.5 C 262.5,121.5 263.5,121.5 264.5,121.5C 264.5,122.5 264.5,123.5 264.5,124.5C 263.5,124.5 262.5,124.5 261.5,124.5C 261.5,123.5 261.5,122.5 261.5,121.5 Z"/></g>
<g><path style="opacity:1" fill="#b8dcf8" d="M 43.5,120.5 C 50.7354,125.638 54.2354,132.638 54,141.5C 49.4345,135.036 45.9345,128.036 43.5,120.5 Z"/></g>
<g><path style="opacity:1" fill="#b9ddf8" d="M 335.5,120.5 C 333.5,128.182 330,135.516 325,142.5C 325.479,138.892 326.146,135.225 327,131.5C 329.842,127.803 332.675,124.137 335.5,120.5 Z"/></g>
<g><path style="opacity:1" fill="#26367d" d="M 113.5,125.5 C 116.957,125.667 117.29,126.667 114.5,128.5C 113.614,127.675 113.281,126.675 113.5,125.5 Z"/></g>
<g><path style="opacity:1" fill="#1a2973" d="M 265.5,128.5 C 267.465,128.948 267.798,129.948 266.5,131.5C 264.481,130.867 264.147,129.867 265.5,128.5 Z"/></g>
<g><path style="opacity:1" fill="#b6dbf8" d="M 77.5,128.5 C 78.552,128.351 79.552,128.517 80.5,129C 74.4071,133.089 68.9071,137.922 64,143.5C 65.4801,135.85 69.9801,130.85 77.5,128.5 Z"/></g>
<g><path style="opacity:1" fill="#baddf8" d="M 302.5,128.5 C 306.192,130.438 309.692,132.771 313,135.5C 314.309,137.747 314.975,140.08 315,142.5C 310.425,137.254 305.258,132.754 299.5,129C 300.448,128.517 301.448,128.351 302.5,128.5 Z"/></g>
<g><path style="opacity:1" fill="#1d2f78" d="M 110.5,132.5 C 113.957,132.667 114.29,133.667 111.5,135.5C 110.614,134.675 110.281,133.675 110.5,132.5 Z"/></g>
<g><path style="opacity:1" fill="#26285f" d="M 132.5,135.5 C 169.835,135.333 207.168,135.5 244.5,136C 245.66,157.427 245.826,178.927 245,200.5C 244.25,201.126 243.416,201.626 242.5,202C 224.5,202.167 206.5,202.333 188.5,202.5C 169.746,202.655 151.079,202.155 132.5,201C 131.172,179.167 131.172,157.333 132.5,135.5 Z"/></g>
<g><path style="opacity:1" fill="#23337b" d="M 267.5,135.5 C 271.31,136.754 271.31,137.754 267.5,138.5C 267.5,137.5 267.5,136.5 267.5,135.5 Z"/></g>
<g><path style="opacity:1" fill="#22327a" d="M 108.5,139.5 C 112.31,140.754 112.31,141.754 108.5,142.5C 108.5,141.5 108.5,140.5 108.5,139.5 Z"/></g>
<g><path style="opacity:1" fill="#c0e7fd" d="M 136.5,140.5 C 171.167,140.5 205.833,140.5 240.5,140.5C 240.5,159.167 240.5,177.833 240.5,196.5C 205.833,196.5 171.167,196.5 136.5,196.5C 136.5,177.833 136.5,159.167 136.5,140.5 Z"/></g>
<g><path style="opacity:1" fill="#26285f" d="M 201.5,182.5 C 201.5,182.833 201.5,183.167 201.5,183.5C 199.547,177.926 198.88,171.926 199.5,165.5C 198.167,165.5 196.833,165.5 195.5,165.5C 195.5,168.833 195.5,172.167 195.5,175.5C 195.167,175.5 194.833,175.5 194.5,175.5C 194.5,172.167 194.5,168.833 194.5,165.5C 192.833,165.5 191.167,165.5 189.5,165.5C 189.5,174.167 189.5,182.833 189.5,191.5C 191.95,191.702 194.283,191.369 196.5,190.5C 196.5,191.5 196.5,192.5 196.5,193.5C 193.946,192.612 191.279,192.279 188.5,192.5C 188.5,183.5 188.5,174.5 188.5,165.5C 186.833,165.5 185.167,165.5 183.5,165.5C 183.5,173.167 183.5,180.833 183.5,188.5C 180.833,188.5 178.167,188.5 175.5,188.5C 175.5,188.167 175.5,187.833 175.5,187.5C 177.833,187.5 180.167,187.5 182.5,187.5C 182.5,180.167 182.5,172.833 182.5,165.5C 179.833,165.5 177.167,165.5 174.5,165.5C 174.5,171.833 174.5,178.167 174.5,184.5C 173.167,184.5 171.833,184.5 170.5,184.5C 170.5,183.833 170.5,183.167 170.5,182.5C 171.15,182.804 171.817,183.137 172.5,183.5C 173.496,177.537 173.829,171.537 173.5,165.5C 170.022,165.816 166.688,165.316 163.5,164C 161.012,160.552 161.678,157.552 165.5,155C 166.833,154.667 168.167,154.333 169.5,154C 173.312,150.91 176.979,147.577 180.5,144C 186.237,141.967 190.904,143.467 194.5,148.5C 205.667,146.832 210.167,151.499 208,162.5C 206.195,165.039 203.695,166.039 200.5,165.5C 200.178,171.358 200.511,177.025 201.5,182.5 Z"/></g>
<g><path style="opacity:1" fill="#0a1f6c" d="M 269.5,143.5 C 271.465,143.948 271.798,144.948 270.5,146.5C 269.614,145.675 269.281,144.675 269.5,143.5 Z"/></g>
<g><path style="opacity:1" fill="#b8dcf8" d="M 38.5,146.5 C 38.8966,145.475 39.5632,145.308 40.5,146C 43.3688,149.204 46.5354,152.037 50,154.5C 51.9669,158.401 53.3003,162.401 54,166.5C 48.5716,159.945 43.4049,153.279 38.5,146.5 Z"/></g>
<g><path style="opacity:1" fill="#25337b" d="M 106.5,147.5 C 107.5,147.5 108.5,147.5 109.5,147.5C 108.754,151.31 107.754,151.31 106.5,147.5 Z"/></g>
<g><path style="opacity:1" fill="#baddf8" d="M 339.5,145.5 C 340.239,145.369 340.906,145.536 341.5,146C 337.094,153.076 331.928,159.576 326,165.5C 326.427,161.619 327.76,157.953 330,154.5C 333.528,151.831 336.695,148.831 339.5,145.5 Z"/></g>
<g><path style="opacity:1" fill="#b9ddf8" d="M 300.5,148.5 C 309.941,149.799 314.774,155.466 315,165.5C 310.677,159.348 305.843,153.681 300.5,148.5 Z"/></g>
<g><path style="opacity:1" fill="#b9ddf8" d="M 77.5,147.5 C 78.2389,147.369 78.9056,147.536 79.5,148C 73.8317,153.188 68.9983,159.021 65,165.5C 64.8083,162.053 65.4749,158.72 67,155.5C 70.2989,152.449 73.7989,149.782 77.5,147.5 Z"/></g>
<g><path style="opacity:1" fill="#001666" d="M 270.5,151.5 C 272.337,151.639 272.67,152.306 271.5,153.5C 270.702,153.043 270.369,152.376 270.5,151.5 Z"/></g>
<g><path style="opacity:1" fill="#001666" d="M 106.5,155.5 C 108.337,155.639 108.67,156.306 107.5,157.5C 106.702,157.043 106.369,156.376 106.5,155.5 Z"/></g>
<g><path style="opacity:1" fill="#162872" d="M 270.5,158.5 C 274.31,159.754 274.31,160.754 270.5,161.5C 270.5,160.5 270.5,159.5 270.5,158.5 Z"/></g>
<g><path style="opacity:1" fill="#0a1f6b" d="M 106.5,162.5 C 108.465,162.948 108.798,163.948 107.5,165.5C 106.614,164.675 106.281,163.675 106.5,162.5 Z"/></g>
<g><path style="opacity:1" fill="#b6dbf8" d="M 80.5,165.5 C 81.0431,165.56 81.3764,165.893 81.5,166.5C 76.5742,173.346 72.4076,180.679 69,188.5C 68.4823,184.449 68.8157,180.449 70,176.5C 73.0298,172.305 76.5298,168.639 80.5,165.5 Z"/></g>
<g><path style="opacity:1" fill="#051d6a" d="M 270.5,166.5 C 272.465,166.948 272.798,167.948 271.5,169.5C 270.614,168.675 270.281,167.675 270.5,166.5 Z"/></g>
<g><path style="opacity:1" fill="#bcdef8" d="M 298.5,167.5 C 298.897,166.475 299.563,166.308 300.5,167C 303.473,169.728 306.306,172.561 309,175.5C 310.434,179.406 310.767,183.406 310,187.5C 307.861,181.888 305.194,176.554 302,171.5C 301.051,169.907 299.885,168.574 298.5,167.5 Z"/></g>
<g><path style="opacity:1" fill="#1f3078" d="M 106.5,170.5 C 107.5,170.5 108.5,170.5 109.5,170.5C 108.754,174.31 107.754,174.31 106.5,170.5 Z"/></g>
<g><path style="opacity:1" fill="#bddef8" d="M 38.5,172.5 C 38.56,171.957 38.8933,171.624 39.5,171.5C 44.5944,174.463 49.4277,177.796 54,181.5C 55.9457,184.377 57.2791,187.377 58,190.5C 51.3296,184.662 44.8296,178.662 38.5,172.5 Z"/></g>
<g><path style="opacity:1" fill="#bbddf8" d="M 339.5,171.5 C 340.239,171.369 340.906,171.536 341.5,172C 336.833,176.667 332.167,181.333 327.5,186C 325.309,187.919 322.976,189.253 320.5,190C 324.743,181.589 331.077,175.422 339.5,171.5 Z"/></g>
<g><path style="opacity:1" fill="#172772" d="M 269.5,174.5 C 271.465,174.948 271.798,175.948 270.5,177.5C 269.614,176.675 269.281,175.675 269.5,174.5 Z"/></g>
<g><path style="opacity:1" fill="#448fd8" d="M 194.5,175.5 C 194.833,175.5 195.167,175.5 195.5,175.5C 196.434,176.568 196.768,177.901 196.5,179.5C 194.365,179.853 193.032,179.02 192.5,177C 192.836,175.97 193.503,175.47 194.5,175.5 Z"/></g>
<g><path style="opacity:1" fill="#25347b" d="M 108.5,177.5 C 112.31,178.754 112.31,179.754 108.5,180.5C 108.5,179.5 108.5,178.5 108.5,177.5 Z"/></g>
<g><path style="opacity:1" fill="#4883c7" d="M 201.5,183.5 C 201.5,183.167 201.5,182.833 201.5,182.5C 203.088,179.782 204.421,179.948 205.5,183C 204.421,186.052 203.088,186.218 201.5,183.5 Z"/></g>
<g><path style="opacity:1" fill="#4085cd" d="M 170.5,182.5 C 170.5,183.167 170.5,183.833 170.5,184.5C 168.907,185.867 167.574,185.534 166.5,183.5C 167.574,181.466 168.907,181.133 170.5,182.5 Z"/></g>
<g><path style="opacity:1" fill="#1e2d77" d="M 267.5,181.5 C 271.31,182.754 271.31,183.754 267.5,184.5C 267.5,183.5 267.5,182.5 267.5,181.5 Z"/></g>
<g><path style="opacity:1" fill="#bbddf8" d="M 85.5,183.5 C 86.0431,183.56 86.3764,183.893 86.5,184.5C 82.5757,192.106 79.7424,200.106 78,208.5C 76.4661,204.289 76.1327,199.956 77,195.5C 79.6641,191.343 82.4975,187.343 85.5,183.5 Z"/></g>
<g><path style="opacity:1" fill="#162772" d="M 110.5,185.5 C 113.548,185.494 114.048,186.494 112,188.5C 110.961,187.756 110.461,186.756 110.5,185.5 Z"/></g>
<g><path style="opacity:1" fill="#b9ddf8" d="M 292.5,184.5 C 302.079,189.75 305.246,198.084 302,209.5C 300.284,200.504 297.117,192.171 292.5,184.5 Z"/></g>
<g><path style="opacity:1" fill="#407bc0" d="M 175.5,187.5 C 175.5,187.833 175.5,188.167 175.5,188.5C 173.912,191.218 172.579,191.052 171.5,188C 172.579,184.948 173.912,184.782 175.5,187.5 Z"/></g>
<g><path style="opacity:1" fill="#172772" d="M 264.5,189.5 C 265.675,189.281 266.675,189.614 267.5,190.5C 265.948,191.798 264.948,191.465 264.5,189.5 Z"/></g>
<g><path style="opacity:1" fill="#448ed7" d="M 196.5,193.5 C 196.5,192.5 196.5,191.5 196.5,190.5C 198.023,189.254 199.023,189.754 199.5,192C 199.106,194.28 198.106,194.78 196.5,193.5 Z"/></g>
<g><path style="opacity:1" fill="#142671" d="M 113.5,192.5 C 116.674,192.952 117.007,193.952 114.5,195.5C 113.614,194.675 113.281,193.675 113.5,192.5 Z"/></g>
<g><path style="opacity:1" fill="#0f2570" d="M 261.5,196.5 C 262.675,196.281 263.675,196.614 264.5,197.5C 262.948,198.798 261.948,198.465 261.5,196.5 Z"/></g>
<g><path style="opacity:1" fill="#baddf8" d="M 41.5,197.5 C 52.4695,198.267 61.1362,203.433 67.5,213C 63.8575,211.686 60.1908,210.019 56.5,208C 51.6202,204.28 46.6202,200.78 41.5,197.5 Z"/></g>
<g><path style="opacity:1" fill="#bddef8" d="M 334.5,197.5 C 335.239,197.369 335.906,197.536 336.5,198C 329.681,203.579 322.347,208.412 314.5,212.5C 314.167,212.167 313.833,211.833 313.5,211.5C 318.751,204.053 325.751,199.386 334.5,197.5 Z"/></g>
<g><path style="opacity:1" fill="#26377d" d="M 116.5,199.5 C 117.5,199.5 118.5,199.5 119.5,199.5C 118.754,203.31 117.754,203.31 116.5,199.5 Z"/></g>
<g><path style="opacity:1" fill="#27377e" d="M 258.5,202.5 C 260.048,202.821 260.715,203.821 260.5,205.5C 257.752,205.598 257.086,204.598 258.5,202.5 Z"/></g>
<g><path style="opacity:1" fill="#2c3980" d="M 121.5,205.5 C 123.048,205.821 123.715,206.821 123.5,208.5C 120.752,208.598 120.086,207.598 121.5,205.5 Z"/></g>
<g><path style="opacity:1" fill="#24265d" d="M 239.5,213.5 C 205.5,213.5 171.5,213.5 137.5,213.5C 133.02,213.35 131.02,211.017 131.5,206.5C 143.833,206.5 156.167,206.5 168.5,206.5C 168.36,208.124 169.027,209.29 170.5,210C 182.5,210.667 194.5,210.667 206.5,210C 207.973,209.29 208.64,208.124 208.5,206.5C 220.833,206.5 233.167,206.5 245.5,206.5C 245.98,211.017 243.98,213.35 239.5,213.5 Z"/></g>
<g><path style="opacity:1" fill="#162772" d="M 253.5,209.5 C 254.675,209.281 255.675,209.614 256.5,210.5C 254.948,211.798 253.948,211.465 253.5,209.5 Z"/></g>
<g><path style="opacity:1" fill="#09206d" d="M 128.5,214.5 C 127.5,214.5 126.5,214.5 125.5,214.5C 126.5,211.833 127.5,211.833 128.5,214.5 Z"/></g>
<g><path style="opacity:1" fill="#beddf6" d="M 302.5,216.5 C 303.167,216.5 303.833,216.5 304.5,216.5C 309.761,217.337 315.095,218.504 320.5,220C 322.848,220.346 324.681,221.513 326,223.5C 326.726,228.552 326.559,233.552 325.5,238.5C 325.329,249.388 324.329,260.055 322.5,270.5C 322.586,269.504 322.252,268.671 321.5,268C 318.754,266.25 315.754,265.25 312.5,265C 302.555,263.505 292.555,262.671 282.5,262.5C 220.833,262.5 159.167,262.5 97.5,262.5C 97.7373,263.791 97.404,264.791 96.5,265.5C 92.7238,264.175 88.5572,263.509 84,263.5C 75.5812,262.995 67.4146,264.162 59.5,267C 58.6266,268.045 57.6266,268.878 56.5,269.5C 55.1998,259.198 54.1998,248.865 53.5,238.5C 53.3695,233.319 53.3695,228.319 53.5,223.5C 54.5,222.667 55.5,221.833 56.5,221C 61.8742,219.16 67.2075,217.66 72.5,216.5C 74.1667,216.5 75.8333,216.5 77.5,216.5C 88.6392,215.866 99.3058,214.866 109.5,213.5C 112.272,214.767 114.939,214.767 117.5,213.5C 120.054,214.388 122.721,214.721 125.5,214.5C 126.5,214.5 127.5,214.5 128.5,214.5C 131.713,214.81 134.713,214.477 137.5,213.5C 171.5,213.5 205.5,213.5 239.5,213.5C 246.648,214.492 253.981,214.825 261.5,214.5C 264.279,214.721 266.946,214.388 269.5,213.5C 270.793,214.158 272.293,214.492 274,214.5C 275.981,214.371 277.647,213.704 279,212.5C 279.483,213.448 279.649,214.448 279.5,215.5C 287.191,215.403 294.858,215.737 302.5,216.5 Z"/></g>
<g><path style="opacity:1" fill="#f7f9f8" d="M 80.5,226.5 C 82.5152,228.676 84.1819,231.176 85.5,234C 93.9313,233.355 95.0979,235.521 89,240.5C 88.2585,243.562 88.4252,246.562 89.5,249.5C 89,249.833 88.5,250.167 88,250.5C 85.5514,249.359 83.0514,248.359 80.5,247.5C 78.063,249.227 75.3963,250.06 72.5,250C 73.6168,246.927 73.7835,243.76 73,240.5C 71.8455,239.257 70.5122,238.257 69,237.5C 68.5172,236.552 68.3505,235.552 68.5,234.5C 71.1873,234.664 73.854,234.497 76.5,234C 77.9732,231.552 79.3065,229.052 80.5,226.5 Z"/></g>
<g><path style="opacity:1" fill="#f8f9f8" d="M 297.5,226.5 C 299.858,228.168 301.524,230.501 302.5,233.5C 305.5,234.333 308.5,235.167 311.5,236C 309.667,237.833 307.833,239.667 306,241.5C 306.314,244.546 306.147,247.546 305.5,250.5C 303.278,249.222 300.944,248.222 298.5,247.5C 296.056,248.222 293.722,249.222 291.5,250.5C 291.101,247.578 290.934,244.578 291,241.5C 283.392,235.867 284.559,233.2 294.5,233.5C 295.788,231.261 296.788,228.928 297.5,226.5 Z"/></g>
<g><path style="opacity:1" fill="#091c6a" d="M 119.5,231.5 C 121.288,231.215 122.955,231.548 124.5,232.5C 126.667,237.5 128.833,242.5 131,247.5C 133.973,242.754 136.473,237.754 138.5,232.5C 140.167,231.167 141.833,231.167 143.5,232.5C 146.038,238.408 148.705,244.242 151.5,250C 149.527,250.495 147.527,250.662 145.5,250.5C 145.67,249.178 145.337,248.011 144.5,247C 141.854,246.503 139.187,246.336 136.5,246.5C 136.67,247.822 136.337,248.989 135.5,250C 132.518,250.498 129.518,250.665 126.5,250.5C 126.625,247.107 124.958,245.774 121.5,246.5C 118.471,246.956 115.971,248.29 114,250.5C 113.167,250.167 112.333,249.833 111.5,249.5C 114.181,243.474 116.848,237.474 119.5,231.5 Z"/></g>
<g><path style="opacity:1" fill="#0a1d6a" d="M 170.5,250.5 C 170.664,247.813 170.497,245.146 170,242.5C 169.283,243.044 168.783,243.711 168.5,244.5C 167.75,247.373 166.083,249.373 163.5,250.5C 161.207,248.608 159.374,246.275 158,243.5C 157.503,245.81 157.337,248.143 157.5,250.5C 155.833,250.5 154.167,250.5 152.5,250.5C 152.5,244.167 152.5,237.833 152.5,231.5C 154.467,231.261 156.301,231.594 158,232.5C 159.746,236.327 161.746,239.993 164,243.5C 166.254,239.993 168.254,236.327 170,232.5C 171.356,231.62 172.856,231.286 174.5,231.5C 174.5,237.833 174.5,244.167 174.5,250.5C 173.167,250.5 171.833,250.5 170.5,250.5 Z"/></g>
<g><path style="opacity:1" fill="#051b69" d="M 192.5,235.5 C 189.5,235.5 186.5,235.5 183.5,235.5C 183.263,236.791 183.596,237.791 184.5,238.5C 186.833,238.5 189.167,238.5 191.5,238.5C 191.5,239.833 191.5,241.167 191.5,242.5C 188.833,242.5 186.167,242.5 183.5,242.5C 183.5,243.833 183.5,245.167 183.5,246.5C 186.5,246.5 189.5,246.5 192.5,246.5C 192.5,247.833 192.5,249.167 192.5,250.5C 187.833,250.5 183.167,250.5 178.5,250.5C 178.5,244.167 178.5,237.833 178.5,231.5C 183.167,231.5 187.833,231.5 192.5,231.5C 192.5,232.833 192.5,234.167 192.5,235.5 Z"/></g>
<g><path style="opacity:1" fill="#051b69" d="M 270.5,235.5 C 267.5,235.5 264.5,235.5 261.5,235.5C 261.263,236.791 261.596,237.791 262.5,238.5C 264.833,238.5 267.167,238.5 269.5,238.5C 269.5,239.833 269.5,241.167 269.5,242.5C 266.833,242.5 264.167,242.5 261.5,242.5C 261.5,243.833 261.5,245.167 261.5,246.5C 264.5,246.5 267.5,246.5 270.5,246.5C 270.5,247.833 270.5,249.167 270.5,250.5C 265.833,250.5 261.167,250.5 256.5,250.5C 256.5,244.167 256.5,237.833 256.5,231.5C 261.167,231.5 265.833,231.5 270.5,231.5C 270.5,232.833 270.5,234.167 270.5,235.5 Z"/></g>
<g><path style="opacity:1" fill="#11226e" d="M 200.5,231.5 C 205.087,230.885 209.087,232.052 212.5,235C 211.601,236.236 210.434,237.07 209,237.5C 206.547,236.507 204.047,236.34 201.5,237C 198.005,243.521 200.005,246.187 207.5,245C 208,244.5 208.5,244 209,243.5C 210.074,244.618 211.24,245.618 212.5,246.5C 207.243,251.229 201.743,251.562 196,247.5C 192.994,240.771 194.494,235.438 200.5,231.5 Z"/></g>
<g><path style="opacity:1" fill="#10216d" d="M 226.5,231.5 C 231.087,230.885 235.087,232.052 238.5,235C 237.601,236.236 236.434,237.07 235,237.5C 232.547,236.507 230.047,236.34 227.5,237C 224.005,243.521 226.005,246.187 233.5,245C 234.819,243.372 236.152,243.539 237.5,245.5C 238.607,244.978 239.774,244.645 241,244.5C 243.281,246.028 245.781,246.528 248.5,246C 249.833,245.333 249.833,244.667 248.5,244C 245.194,243.308 242.36,241.808 240,239.5C 240.768,231.565 244.935,229.398 252.5,233C 253.337,234.011 253.67,235.178 253.5,236.5C 252.178,236.33 251.011,236.663 250,237.5C 248.89,235.963 247.39,235.297 245.5,235.5C 245.33,236.822 245.663,237.989 246.5,239C 255.242,240.346 256.576,244.013 250.5,250C 246.05,251.114 242.05,250.28 238.5,247.5C 232.866,251.297 227.366,251.297 222,247.5C 218.994,240.771 220.494,235.438 226.5,231.5 Z"/></g>
<g><path style="opacity:1" fill="#637db0" d="M 192.5,235.5 C 189.523,235.902 186.857,236.902 184.5,238.5C 183.596,237.791 183.263,236.791 183.5,235.5C 186.5,235.5 189.5,235.5 192.5,235.5 Z"/></g>
<g><path style="opacity:1" fill="#637db0" d="M 270.5,235.5 C 267.523,235.902 264.857,236.902 262.5,238.5C 261.596,237.791 261.263,236.791 261.5,235.5C 264.5,235.5 267.5,235.5 270.5,235.5 Z"/></g>
<g><path style="opacity:1" fill="#a6d2f3" d="M 53.5,238.5 C 54.1998,248.865 55.1998,259.198 56.5,269.5C 56.4443,272.561 57.7776,274.728 60.5,276C 70.4546,275.011 80.4546,274.677 90.5,275C 91.949,276.102 93.2823,277.269 94.5,278.5C 94.1476,281.079 92.8142,282.913 90.5,284C 72.5332,282.829 54.5332,282.496 36.5,283C 27.3362,283.638 18.3362,285.138 9.5,287.5C 12.2862,278.428 16.2862,269.928 21.5,262C 14.6136,257.389 7.28028,253.556 -0.5,250.5C -0.5,249.833 -0.5,249.167 -0.5,248.5C 16.779,241.508 34.779,238.175 53.5,238.5 Z"/></g>
<g><path style="opacity:1" fill="#a6d2f3" d="M 325.5,238.5 C 336.895,239.008 348.228,240.174 359.5,242C 366.958,243.429 373.958,245.929 380.5,249.5C 380.5,249.833 380.5,250.167 380.5,250.5C 372.577,253.795 364.91,257.628 357.5,262C 362.739,269.644 367.073,277.81 370.5,286.5C 370,286.833 369.5,287.167 369,287.5C 359.637,285.162 350.137,283.662 340.5,283C 323.128,282.418 305.794,282.751 288.5,284C 286.658,282.654 285.658,280.821 285.5,278.5C 286.316,276.856 287.65,275.69 289.5,275C 299.22,274.627 308.887,274.96 318.5,276C 321.215,275.125 322.548,273.292 322.5,270.5C 324.329,260.055 325.329,249.388 325.5,238.5 Z"/></g>
<g><path style="opacity:1" fill="#a5c3e3" d="M 120.5,238.5 C 122.121,238.787 123.121,239.787 123.5,241.5C 122.277,242.614 120.944,242.781 119.5,242C 120.337,240.989 120.67,239.822 120.5,238.5 Z"/></g>
<g><path style="opacity:1" fill="#accae8" d="M 140.5,238.5 C 142.104,239.287 142.771,240.62 142.5,242.5C 141.5,242.5 140.5,242.5 139.5,242.5C 139.433,241.041 139.766,239.708 140.5,238.5 Z"/></g>
<g><path style="opacity:1" fill="#637db0" d="M 191.5,238.5 C 192.451,239.919 192.784,241.585 192.5,243.5C 189.753,243.187 187.086,243.52 184.5,244.5C 187.306,245.168 189.972,245.834 192.5,246.5C 189.5,246.5 186.5,246.5 183.5,246.5C 183.5,245.167 183.5,243.833 183.5,242.5C 186.167,242.5 188.833,242.5 191.5,242.5C 191.5,241.167 191.5,239.833 191.5,238.5 Z"/></g>
<g><path style="opacity:1" fill="#637db0" d="M 269.5,238.5 C 270.451,239.919 270.784,241.585 270.5,243.5C 267.753,243.187 265.086,243.52 262.5,244.5C 265.306,245.168 267.972,245.834 270.5,246.5C 267.5,246.5 264.5,246.5 261.5,246.5C 261.5,245.167 261.5,243.833 261.5,242.5C 264.167,242.5 266.833,242.5 269.5,242.5C 269.5,241.167 269.5,239.833 269.5,238.5 Z"/></g>
<g><path style="opacity:1" fill="#657fb2" d="M 170.5,250.5 C 169.833,248.5 169.167,246.5 168.5,244.5C 168.783,243.711 169.283,243.044 170,242.5C 170.497,245.146 170.664,247.813 170.5,250.5 Z"/></g>
<g><path style="opacity:1" fill="#c1e8fe" d="M -0.5,250.5 C 7.28028,253.556 14.6136,257.389 21.5,262C 16.2862,269.928 12.2862,278.428 9.5,287.5C 18.3362,285.138 27.3362,283.638 36.5,283C 54.5332,282.496 72.5332,282.829 90.5,284C 92.8142,282.913 94.1476,281.079 94.5,278.5C 94.9088,274.124 95.5755,269.79 96.5,265.5C 97.404,264.791 97.7373,263.791 97.5,262.5C 159.167,262.5 220.833,262.5 282.5,262.5C 283.87,267.755 284.87,273.088 285.5,278.5C 285.658,280.821 286.658,282.654 288.5,284C 305.794,282.751 323.128,282.418 340.5,283C 350.137,283.662 359.637,285.162 369,287.5C 369.5,287.167 370,286.833 370.5,286.5C 367.073,277.81 362.739,269.644 357.5,262C 364.91,257.628 372.577,253.795 380.5,250.5C 380.5,263.5 380.5,276.5 380.5,289.5C 375.247,297.422 368.914,304.422 361.5,310.5C 246.167,310.5 130.833,310.5 15.5,310.5C 9.83333,305.5 4.5,300.167 -0.5,294.5C -0.5,279.833 -0.5,265.167 -0.5,250.5 Z"/></g>
<g><path style="opacity:1" fill="#578db5" d="M 96.5,265.5 C 95.5755,269.79 94.9088,274.124 94.5,278.5C 93.2823,277.269 91.949,276.102 90.5,275C 80.4546,274.677 70.4546,275.011 60.5,276C 57.7776,274.728 56.4443,272.561 56.5,269.5C 57.6266,268.878 58.6266,268.045 59.5,267C 67.4146,264.162 75.5812,262.995 84,263.5C 88.5572,263.509 92.7238,264.175 96.5,265.5 Z"/></g>
<g><path style="opacity:1" fill="#588eb5" d="M 282.5,262.5 C 292.555,262.671 302.555,263.505 312.5,265C 315.754,265.25 318.754,266.25 321.5,268C 322.252,268.671 322.586,269.504 322.5,270.5C 322.548,273.292 321.215,275.125 318.5,276C 308.887,274.96 299.22,274.627 289.5,275C 287.65,275.69 286.316,276.856 285.5,278.5C 284.87,273.088 283.87,267.755 282.5,262.5 Z"/></g>
<g><path style="opacity:1" fill="#f9f9f9" d="M 380.5,289.5 C 380.5,296.5 380.5,303.5 380.5,310.5C 374.167,310.5 367.833,310.5 361.5,310.5C 368.914,304.422 375.247,297.422 380.5,289.5 Z"/></g>
<g><path style="opacity:1" fill="#f8f9f9" d="M -0.5,294.5 C 4.5,300.167 9.83333,305.5 15.5,310.5C 10.1667,310.5 4.83333,310.5 -0.5,310.5C -0.5,305.167 -0.5,299.833 -0.5,294.5 Z"/></g>
</svg>
